<svg width="392" height="308" viewBox="0 0 392 308" fill="none" xmlns="http://www.w3.org/2000/svg">
<g clip-path="url(#clip0_221_60)">
<path d="M283.3 132.4H365V137.7C365 137.7 337.6 140.1 337.2 166.4C332.8 166.4 283.7 168.3 283.3 168.4V132.4Z" fill="#25262A"/>
<path d="M283.3 133.8C310.5 133.8 337.8 133.8 365 133.8C364.5 133.3 364.1 132.9 363.6 132.4C363.6 134.2 363.6 135.9 363.6 137.7C364.1 137.2 364.5 136.8 365 136.3C359.9 136.8 354.7 138.6 350.3 141.1C340.9 146.4 336.1 155.8 335.8 166.4C336.3 165.9 336.7 165.5 337.2 165C327.6 165 318 165.6 308.4 166C302.6 166.2 296.9 166.4 291.1 166.7C288.4 166.8 285.6 166.7 282.9 167.1C283.5 167.6 284.1 168 284.7 168.5C284.7 156.5 284.7 144.5 284.7 132.5C284.7 130.7 281.9 130.7 281.9 132.5C281.9 144.5 281.9 156.5 281.9 168.5C281.9 169.5 282.8 170 283.7 169.9C283 170 283.9 169.9 284 169.9C284.6 169.9 285.2 169.8 285.8 169.8C287.8 169.7 289.7 169.6 291.6 169.6C297.4 169.4 303.2 169.1 309 168.9C318.3 168.5 327.7 168 337.1 168C337.9 168 338.5 167.4 338.5 166.6C338.8 156.6 343.4 148.4 352.1 143.5C355.9 141.4 360.7 139.7 364.9 139.4C365.7 139.3 366.3 138.8 366.3 138C366.3 136.2 366.3 134.5 366.3 132.7C366.3 131.9 365.7 131.3 364.9 131.3C337.7 131.3 310.4 131.3 283.2 131.3C281.5 131 281.5 133.8 283.3 133.8Z" fill="#25262A"/>
<path d="M245.6 80H284.2C285.8 80 287 78.7 287 77.2V32.4C287 30.8 285.7 29.8 284.2 30L245.6 35.9C244.1 36.1 242.8 37.6 242.8 39.2V77.2C242.8 78.7 244 80 245.6 80Z" fill="white"/>
<path d="M326.2 132.1H292V23.8L326.2 26.4V132.1Z" fill="#25262A"/>
<path d="M326.2 131C314.8 131 303.4 131 292 131C292.3 131.4 292.7 131.7 293.1 132.1C293.1 97.7001 293.1 63.3 293.1 28.9C293.1 27.2 293.1 25.5 293.1 23.9C292.7 24.3 292.4 24.6 292 25C303.4 25.9 314.8 26.7 326.2 27.6C325.9 27.2 325.5 26.9 325.1 26.5C325.1 60.5 325.1 94.5 325.1 128.5C325.1 129.7 325.1 130.9 325.1 132.1C325.1 133.5 327.2 133.5 327.2 132.1C327.2 98.1001 327.2 64.1001 327.2 30.1C327.2 28.9001 327.2 27.7 327.2 26.5C327.2 25.9 326.7 25.5 326.1 25.4C314.7 24.5 303.3 23.7 291.9 22.8C291.3 22.8 290.8 23.3 290.8 23.9C290.8 58.3 290.8 92.7001 290.8 127.1C290.8 128.8 290.8 130.5 290.8 132.1C290.8 132.7 291.3 133.2 291.9 133.2C303.3 133.2 314.7 133.2 326.1 133.2C327.6 133.1 327.6 131 326.2 131Z" fill="#25262A"/>
<path d="M317.3 126.6H300.8C298.5 126.6 296.6 124.7 296.6 122.4V34.2001C296.6 31.9001 298.5 30.1001 300.8 30.3001L317.3 31.5001C319.6 31.7001 321.5 33.7001 321.5 36.1001V122.4C321.6 124.7 319.7 126.6 317.3 126.6Z" fill="white"/>
<path d="M326.2 132.1V26.4001L351.5 40.0001C353.6 41.1001 355.2 43.9001 355.2 46.3001V132.1H326.2Z" fill="#25262A"/>
<path d="M327.3 132.1C327.3 98.1001 327.3 64.1001 327.3 30.1001C327.3 28.9001 327.3 27.7001 327.3 26.5001C326.8 26.8001 326.2 27.1001 325.7 27.4001C333.4 31.5001 341.1 35.7001 348.8 39.8001C351.7 41.4001 354.2 43.3001 354.2 47.0001C354.2 49.5001 354.2 52.0001 354.2 54.5001C354.2 75.5001 354.2 96.5001 354.2 117.5C354.2 122.4 354.2 127.2 354.2 132.1C354.6 131.7 354.9 131.4 355.3 131C345.6 131 336 131 326.3 131C324.9 131 324.9 133.1 326.3 133.1C336 133.1 345.6 133.1 355.3 133.1C355.9 133.1 356.4 132.6 356.4 132C356.4 115.7 356.4 99.4001 356.4 83.1001C356.4 73.2001 356.4 63.4001 356.4 53.5001C356.4 48.1001 357.4 41.8001 351.7 38.7001C343.4 34.3001 335.2 29.8001 326.9 25.4001C326.2 25.0001 325.3 25.5001 325.3 26.3001C325.3 60.3001 325.3 94.3001 325.3 128.3C325.3 129.5 325.3 130.7 325.3 131.9C325.2 133.4 327.3 133.4 327.3 132.1Z" fill="#25262A"/>
<path d="M291.999 132.1V23.7998L241.999 31.3998C239.699 31.7998 237.799 33.8998 237.799 36.2998V132.1H291.999Z" fill="white"/>
<path d="M293.1 132.1C293.1 97.6999 293.1 63.2999 293.1 28.8999C293.1 27.1999 293.1 25.4999 293.1 23.8999C293.1 23.0999 292.4 22.7999 291.8 22.8999C275.4 25.3999 259 27.8999 242.5 30.3999C236.1 31.3999 236.7 37.1999 236.7 41.9999C236.7 50.9999 236.7 59.9999 236.7 68.9999C236.7 89.9999 236.7 111.1 236.7 132.1C236.7 132.7 237.2 133.2 237.8 133.2C255.9 133.2 274 133.2 292 133.2C293.4 133.2 293.4 131.1 292 131.1C273.9 131.1 255.8 131.1 237.8 131.1C238.2 131.5 238.5 131.8 238.9 132.2C238.9 100.3 238.9 68.3999 238.9 36.5999C238.9 32.1999 244.7 32.2999 247.7 31.7999C253.5 30.8999 259.4 29.9999 265.3 29.0999C274.3 27.6999 283.4 26.3999 292.4 24.9999C292 24.6999 291.5 24.2999 291.1 23.9999C291.1 58.3999 291.1 92.7999 291.1 127.2C291.1 128.9 291.1 130.6 291.1 132.2C291 133.4 293.1 133.4 293.1 132.1Z" fill="#25262A"/>
<path d="M184.1 62.7002C181.1 60.0002 177.1 59.5002 175.2 61.7002L112.8 130.9L123.7 140.7L186 71.5002C188 69.3002 187.1 65.4002 184.1 62.7002Z" fill="white"/>
<path d="M184.8 62C181.7 59.5 177.2 57.9 174.1 61.3C172.7 62.9 171.2 64.5 169.8 66.1C163.4 73.1 157.1 80.2 150.7 87.2C138.1 101.1 125.6 115 113 129C112.7 129.4 112.3 129.8 112 130.1C111.6 130.5 111.6 131.2 112 131.6C115.6 134.9 119.2 138.1 122.9 141.4C123.3 141.8 124 141.8 124.4 141.4C135 129.7 145.5 118 156.1 106.3C163.3 98.4 170.4 90.4 177.6 82.5C180.9 78.9 184.6 75.4 187.4 71.4C189.6 68.4 187 64.1 184.8 62C183.8 61 182.3 62.5 183.3 63.5C185.2 65.4 187.2 68.6 185 71C184.5 71.6 184 72.1 183.4 72.7C181.3 75.1 179.1 77.4 177 79.8C170 87.6 162.9 95.4 155.9 103.2C144.9 115.4 133.9 127.6 122.8 139.8C122.8 139.8 122.8 139.8 122.8 139.9C123.3 139.9 123.8 139.9 124.3 139.9C120.7 136.6 117.1 133.4 113.4 130.1C113.4 130.6 113.4 131.1 113.4 131.6C124 119.9 134.5 108.2 145.1 96.5C152.3 88.6 159.4 80.6 166.6 72.7C168.9 70.2 171.2 67.6 173.5 65.1C175 63.4 176.2 61.6 178.7 61.5C180.4 61.5 182 62.6 183.2 63.6C184.4 64.3 185.9 62.8 184.8 62Z" fill="#25262A"/>
<path d="M123.6 140.6C121.7 142.7 117.7 142.3 114.7 139.6C111.7 136.9 110.8 133 112.7 130.9C114.6 128.8 118.6 129.2 121.6 131.9C124.7 134.6 125.5 138.5 123.6 140.6Z" fill="white"/>
<path d="M122.9 139.9C118.9 143.8 110.1 136 113.5 131.6C117 127.2 126.4 135.5 122.9 139.9C122.1 141 123.6 142.5 124.4 141.4C129.6 134.8 118.1 124.3 112 130.1C109.1 132.9 111.3 137.5 113.5 139.9C116.2 142.8 121.3 144.4 124.4 141.4C125.4 140.4 123.9 138.9 122.9 139.9Z" fill="#25262A"/>
<path d="M119.3 134.5C118.1 133.4 116.5 133.2 115.8 134.1L46 211.4L50.3 215.3L120.1 137.9C120.9 137.1 120.5 135.5 119.3 134.5Z" fill="white"/>
<path d="M119.9 133.6C115.4 130.4 111.7 137.1 109.1 140C102.7 147.1 96.2 154.2 89.8 161.4C76.2 176.5 62.6 191.5 49 206.6C47.8 208 46.5 209.4 45.3 210.7C44.9 211.1 44.9 211.8 45.3 212.2C46.7 213.5 48.2 214.8 49.6 216.1C50 216.5 50.7 216.5 51.1 216.1C73.8 191 96.5 165.8 119.2 140.7C121.2 138.5 122.8 136.7 120.2 133.8C119.3 132.8 117.8 134.3 118.7 135.3C120.5 137.3 118.3 138.6 117 140C114.8 142.4 112.6 144.9 110.4 147.3C103.4 155 96.5 162.7 89.6 170.4C76.9 184.5 64.2 198.5 51.5 212.6C50.9 213.3 50.3 213.9 49.7 214.6C50.2 214.6 50.7 214.6 51.2 214.6C49.8 213.3 48.3 212 46.9 210.7C46.9 211.2 46.9 211.7 46.9 212.2C69.6 187.1 92.3 161.9 115 136.8C116.2 135.5 116.8 133.9 119 135.4C119.9 136.2 121 134.3 119.9 133.6Z" fill="#25262A"/>
<path d="M126.1 132.1C126.1 132.1 126.9 131.1 128.4 129.3C129.9 127.6 132 125 134.6 122C137.2 119 140.2 115.5 143.4 111.8C146.7 108.1 150.2 104.2 153.6 100.2C157.1 96.2999 160.7 92.3999 164 88.7999C167.3 85.0999 170.5 81.7999 173.2 78.8999C175.9 75.9999 178.2 73.5999 179.8 71.9999C181.4 70.2999 182.3 69.3999 182.3 69.3999C182.3 69.3999 181.5 70.3999 180 72.1999C178.5 73.9999 176.4 76.4999 173.8 79.4999C171.2 82.4999 168.2 85.9999 165 89.6999C161.7 93.3999 158.2 97.2999 154.8 101.3C151.3 105.2 147.7 109.1 144.4 112.7C141.1 116.4 137.9 119.7 135.2 122.6C132.5 125.5 130.2 127.8 128.6 129.5C127 131.1 126.1 132.1 126.1 132.1Z" fill="#25262A"/>
<path d="M273.4 208.2H186C180.5 208.2 176.1 203.8 176.1 198.3V93.8001C176.1 88.3001 176.8 83.9001 182.3 83.9001H273.4C278.9 83.9001 283.3 88.3001 283.3 93.8001V198.3C283.3 203.8 278.9 208.2 273.4 208.2Z" fill="#25262A"/>
<path d="M273.4 206.8C257.2 206.8 241 206.8 224.8 206.8C214.7 206.8 204.7 206.8 194.6 206.8C188 206.8 177.6 208 177.6 198.3C177.6 164.2 177.6 130.1 177.6 96.0001C177.6 93.4001 177.5 90.8001 178.2 88.2001C179.1 84.9001 182.5 85.3001 185.1 85.3001C193.2 85.3001 201.3 85.3001 209.4 85.3001C229.5 85.3001 249.6 85.3001 269.6 85.3001C271.4 85.3001 273.2 85.2001 274.9 85.4001C279.8 86.1001 281.9 90.7001 281.9 95.1001C281.9 101.9 281.9 108.6 281.9 115.4C281.9 137.3 281.9 159.2 281.9 181.1C281.9 185.8 281.9 190.4 281.9 195.1C281.9 196.1 281.9 197 281.9 198C281.9 203 278.2 206.6 273.4 206.8C271.6 206.9 271.6 209.7 273.4 209.6C279.6 209.3 284.7 204.6 284.7 198.3C284.7 196.9 284.7 195.5 284.7 194.1C284.7 185.9 284.7 177.6 284.7 169.4C284.7 147.9 284.7 126.5 284.7 105C284.7 100.3 285.5 94.4001 284 89.8001C281.3 82.0001 273.4 82.5001 266.8 82.5001C246 82.5001 225.1 82.5001 204.3 82.5001C197.3 82.5001 190.3 82.5001 183.3 82.5001C175.6 82.5001 174.7 88.7001 174.7 95.2001C174.7 113.1 174.7 131 174.7 148.9C174.7 165.3 174.7 181.6 174.7 198C174.7 202.7 177.4 207.3 182 208.9C184.3 209.7 186.5 209.6 188.8 209.6C197.1 209.6 205.5 209.6 213.8 209.6C233.7 209.6 253.5 209.6 273.4 209.6C275.2 209.6 275.2 206.8 273.4 206.8Z" fill="#25262A"/>
<path d="M191.6 165.7V93.8001C191.6 88.3001 187.2 83.9001 181.7 83.9001H145.4C139.9 83.9001 135.5 88.3001 135.5 93.8001V159.5L191.6 165.7Z" fill="white"/>
<path d="M193 165.7C193 148.4 193 131.1 193 113.8C193 107.2 193 100.6 193 94.0001C193 88.3001 188.5 82.9001 182.6 82.6001C179.6 82.5001 176.5 82.6001 173.4 82.6001C164.1 82.6001 154.8 82.6001 145.6 82.6001C139.7 82.6001 134.9 86.8001 134.1 92.6001C133.8 94.6001 134 96.7001 134 98.7001C134 118.1 134 137.5 134 157C134 157.9 134 158.8 134 159.7C134 160.5 134.6 161 135.4 161.1C154.1 163.1 172.8 165.2 191.5 167.2C193.3 167.4 193.3 164.6 191.5 164.4C172.8 162.4 154.1 160.3 135.4 158.3C135.9 158.8 136.3 159.2 136.8 159.7C136.8 142.2 136.8 124.6 136.8 107C136.8 99.8001 134.5 87.9001 143.8 85.6001C146.8 84.9001 150.5 85.5001 153.5 85.5001C159.1 85.5001 164.7 85.5001 170.3 85.5001C177.7 85.5001 190.1 83.5001 190.1 94.6001C190.1 101.7 190.1 108.8 190.1 115.8C190.1 132.5 190.1 149.1 190.1 165.8C190.1 167.5 193 167.5 193 165.7Z" fill="#25262A"/>
<path d="M185.5 164.8V97C185.5 92.6 181.9 89 177.5 89H148C143.6 89 140 92.6 140 97V159.8L185.5 164.8Z" fill="white"/>
<path d="M186.2 165.6L139.3 160.5V97C139.3 92.2 143.2 88.3 148 88.3H177.5C182.3 88.3 186.2 92.2 186.2 97V165.6ZM140.7 159.2L184.8 164V97C184.8 93 181.5 89.7 177.5 89.7H148C144 89.7 140.7 93 140.7 97V159.2Z" fill="#25262A"/>
<path d="M224 247.7C224.6 247.8 225.2 248 225.8 248.1C227.6 248.5 228.3 245.8 226.6 245.4C226 245.3 225.4 245.1 224.7 245C223.9 244.8 223.2 245.2 223 246C222.8 246.6 223.2 247.5 224 247.7Z" fill="#25262A"/>
<path d="M318.2 151.7C315.3 151.7 231.3 167.4 231.3 167.4C222.6 168.6 215 173.3 209.5 180.1C204 186.9 200.7 195.9 200.7 205.6C200.7 223.6 213.7 247.9 227.7 249.5L274 253.5C268.2 251.3 254.8 245.2 250.8 240.3L325 215.7C327.4 215 329.4 214.3 331.4 213.3C336.5 210.8 340.9 206.5 344 201.2C347.1 195.8 348.9 189.4 348.9 182.4C348.9 174.1 346.3 166.5 342.1 160.6L356.4 157.6C358.8 157 364 156.2 367.6 156.4C335.4 152.4 321.5 151.7 318.2 151.7Z" fill="white"/>
<path d="M318.2 150.3C312.5 150.4 306.6 152.2 301 153.2C289.9 155.2 278.7 157.2 267.6 159.3C257.8 161.1 248 162.9 238.2 164.8C229.9 166.4 221.9 167.7 214.9 173C200.8 183.5 196.8 202 200.9 218.4C204 230.8 212.5 248.2 226.5 250.9C234 252.4 242.1 252.3 249.7 253C257.8 253.7 265.8 254.4 273.9 255.1C275.6 255.2 275.6 252.9 274.3 252.3C266.8 249.4 257.2 245.7 251.8 239.5C251.6 240.3 251.4 241.1 251.2 241.9C267.3 236.6 283.4 231.2 299.5 225.9C307.5 223.3 315.5 220.6 323.4 218C327 216.8 330.6 215.7 333.9 213.8C341.4 209.5 346.3 201.7 348.7 193.6C352 182.4 349.9 169.7 343.2 160.2C342.9 160.9 342.6 161.6 342.4 162.3C350.5 160.6 359.2 157.9 367.5 158.1C369.4 158.1 369.3 155.5 367.5 155.3C351.2 153 334.6 150.3 318.2 150.3C316.4 150.3 316.4 153.1 318.2 153.1C334.6 153.1 351.2 155.9 367.4 157.9C367.4 157 367.4 156 367.4 155.1C358.8 154.9 349.9 157.6 341.6 159.4C340.8 159.6 340.2 160.7 340.8 161.5C352.9 178.7 348.1 206.4 326.9 213.8C321.2 215.8 315.4 217.6 309.6 219.5C290.7 225.8 271.8 232 252.8 238.3C252 238.6 251.2 238.8 250.4 239.1C249.4 239.4 249.1 240.6 249.8 241.5C255.6 248.1 265.6 251.9 273.6 255C273.7 254.1 273.8 253.1 274 252.2C266.2 251.5 258.3 250.8 250.5 250.2C242.7 249.5 234.4 249.6 226.7 248C219.3 246.5 213.8 239.1 210.2 233.1C205.8 225.7 202.9 217.1 202.3 208.5C200.8 189.6 213.3 172.4 231.9 168.9C246.2 166.2 260.5 163.6 274.8 160.9C284.4 159.1 294 157.4 303.6 155.7C308.3 154.9 313.7 153.4 318.3 153.2C320 153.1 320 150.2 318.2 150.3Z" fill="#25262A"/>
<path d="M210.2 100.5L209.2 158.5L208.1 100.5H210.2Z" fill="white"/>
<path d="M214.7 100.5H216.7L215.7 157.5L214.7 100.5Z" fill="white"/>
<path d="M221.3 100.5H223.2L222.3 156.4L221.3 100.5Z" fill="white"/>
<path d="M227.899 100.5H229.699L228.799 155.3L227.899 100.5Z" fill="white"/>
<path d="M234.5 100.5H236.2L235.4 154.2L234.5 100.5Z" fill="white"/>
<path d="M241.1 100.5H242.7L241.9 153.2L241.1 100.5Z" fill="white"/>
<path d="M247.6 100.5H249.2L248.4 152.1L247.6 100.5Z" fill="white"/>
<path d="M254.2 100.5H255.7L255 151L254.2 100.5Z" fill="white"/>
<path d="M262.2 100.5L261.5 149.9L260.8 100.5H262.2Z" fill="white"/>
<path d="M200.6 100.5C200.6 100.5 201.7 100.4 203.6 100.4C205.5 100.3 208.2 100.2 211.4 100.1C214.6 100 218.4 99.9 222.4 99.9C226.4 99.9 230.7 99.8 235 99.8C239.3 99.8 243.6 99.9 247.6 99.9C251.6 99.9 255.4 100.1 258.6 100.1C261.8 100.2 264.5 100.3 266.4 100.4C268.3 100.5 269.4 100.5 269.4 100.5C269.4 100.5 268.3 100.6 266.4 100.6C264.5 100.7 261.8 100.8 258.6 100.9C255.4 101 251.6 101.1 247.6 101.1C243.6 101.1 239.3 101.2 235 101.2C230.7 101.2 226.4 101.1 222.4 101.1C218.4 101.1 214.6 100.9 211.4 100.9C208.2 100.8 205.5 100.7 203.6 100.6C201.7 100.5 200.6 100.5 200.6 100.5Z" fill="white"/>
<path d="M265.3 252.6C268.7 253.4 272 254.2 275.4 254.9C277.2 255.3 277.9 252.6 276.2 252.2C272.8 251.5 269.4 250.7 266.1 249.9C264.2 249.5 263.5 252.2 265.3 252.6Z" fill="#25262A"/>
<path d="M369.9 155.5C369.1 155.4 368.2 155.1 367.3 155.1C365.5 155.1 365.5 157.9 367.3 157.9C366.7 157.9 367.1 157.9 367.3 157.9C367.5 157.9 367.8 158 368 158C368.4 158.1 368.7 158.1 369.1 158.2C369.9 158.3 370.6 158 370.8 157.2C371.1 156.6 370.7 155.6 369.9 155.5Z" fill="#25262A"/>
<path d="M390.6 187.8C390.6 194.9 388.8 201.6 385.6 207.1C382.4 212.6 378 217 372.7 219.5C372.7 219.5 281.9 253.5 277.8 253.5C277 253.5 276.2 253.5 275.4 253.4C272 253.1 268.7 252.4 265.7 251.2C259.9 249 254.8 245.2 250.8 240.3C245.1 233.4 241.6 224.3 241.6 214.3C241.6 204.3 245 195.2 250.7 188.2C256.3 181.2 264.2 176.4 273.1 175.1L342 160.6L356.3 157.6C358.7 157 364 156.2 364.5 156.2C365.5 156.2 366.5 156.3 367.4 156.4L369.6 156.8C383.1 159.7 390.6 171 390.6 187.8Z" fill="#25262A"/>
<path d="M277.8 255C276.9 255 276.1 255 275.3 254.9C271.8 254.6 268.4 253.9 265.2 252.6C259.3 250.3 253.9 246.4 249.7 241.3C243.6 233.9 240.2 224.3 240.2 214.4C240.2 204.5 243.5 194.9 249.6 187.4C255.6 179.9 263.9 175.1 272.9 173.8L356 156.4C358.3 155.8 363.8 155 364.5 155C365.6 155 366.6 155.1 367.5 155.2H367.7L369.9 155.6C384 158.6 392.1 170.4 392.1 188C392.1 195.2 390.3 202.1 386.9 208C383.6 213.8 378.9 218.3 373.4 221C358 226.6 281.9 255 277.8 255ZM364.4 157.7C363.9 157.7 358.9 158.5 356.5 159.1L273.3 176.6C264.9 177.8 257.3 182.3 251.7 189.2C246.1 196.2 243 205.1 243 214.4C243 223.7 246.1 232.6 251.8 239.5C255.7 244.2 260.7 247.9 266.1 249.9C269.1 251.1 272.2 251.8 275.4 252C276.2 252.1 276.9 252.1 277.7 252.1C281.3 251.8 336.1 231.7 372.1 218.2C377 215.8 381.2 211.7 384.2 206.4C387.3 200.9 389 194.5 389 187.8C389 171.5 381.9 161 369.1 158.2L367 157.8C366.3 157.8 365.4 157.7 364.4 157.7Z" fill="#25262A"/>
<path d="M356.8 131L301 134.5L356.6 129.6L356.8 131Z" fill="white"/>
<path d="M346.8 97.0999L334.7 94.3999C332.4 93.8999 330.6 91.5999 330.6 89.1999V37.8999C330.6 35.5999 332.3 34.5999 334.3 35.6999L347.2 42.5999C349.3 43.6999 350.9 46.4999 350.9 48.8999V93.8999C350.9 96.0999 349 97.5999 346.8 97.0999Z" fill="white"/>
<path d="M321.6 48.3001V36.1001C321.6 33.8001 319.7 31.7001 317.4 31.5001L300.9 30.3001C298.6 30.1001 296.7 31.9001 296.7 34.2001V47.8001L300.3 48.4001V83.9001L296.7 83.7001V122.5C296.7 124.8 298.6 126.7 300.9 126.7H317.4C319.8 126.7 321.6 124.8 321.6 122.5V83.9001L307.4 84.0001V48.4001L321.6 48.3001Z" fill="#25262A"/>
<path d="M330.5 83.8998V89.0998C330.5 91.3998 332.3 93.7998 334.6 94.2998L346.7 96.9998C349 97.4998 350.8 95.9998 350.8 93.6998V83.7998H330.5V83.8998Z" fill="#25262A"/>
<path d="M347.2 42.5999L334.3 35.6999C332.2 34.5999 330.6 35.5999 330.6 37.8999V48.2999H350.9C350.7 46.0999 349.1 43.5999 347.2 42.5999Z" fill="#25262A"/>
<path d="M326.4 96.5L350.7 102.5L326.1 97.9L326.4 96.5Z" fill="white"/>
<path d="M284.2 78.6001H245.6C243.6 78.6001 242.1 77.1001 242.1 75.2001V38.7001C242.1 36.8001 243.6 35.2001 245.5 34.9001L284.1 29.3001C286.1 29.0001 287.7 30.4001 287.7 32.3001V75.2001C287.7 77.1001 286.1 78.6001 284.2 78.6001ZM284.6 30.7001C284.5 30.7001 284.4 30.7001 284.3 30.7001L245.7 36.3001C244.5 36.5001 243.5 37.6001 243.5 38.7001V75.2001C243.5 76.3001 244.5 77.2001 245.6 77.2001H284.2C285.4 77.2001 286.3 76.3001 286.3 75.2001V32.3001C286.3 31.3001 285.6 30.7001 284.6 30.7001Z" fill="#25262A"/>
<path d="M287 46.2V32.4C287 30.8 285.7 29.8 284.2 30L245.6 35.9C244.5 36.1 243.6 36.8 243.1 37.8L256.3 41.3L256.4 78.5H263.2V42.7L287 46.2Z" fill="#25262A"/>
<path d="M326.4 99.8L340.6 103.6L326.1 101.2L326.4 99.8Z" fill="white"/>
<path d="M182.7 160.5C182.4 160.8 182.1 161.2 181.8 161.5C181 160.6 180 159.4 178.9 158.1C179.3 157.8 179.6 157.4 180 157C180.8 156.2 181.6 155.4 182.3 154.6C182.7 155 183 155.3 183.4 155.6C184.7 156.8 185.4 157.5 185.4 157.5C185.4 157.5 184.7 156.7 183.6 155.4C183.3 155.1 183 154.7 182.6 154.3C183.2 153.7 183.7 153 184.2 152.5C185.3 151.2 185.9 150.3 185.9 150.3C185.9 150.3 185 150.9 183.7 152C183.2 152.4 182.6 152.9 181.9 153.5C181.1 152.5 180.1 151.4 179 150.3C180.1 149.1 181.1 148 181.9 147C182.5 147.6 183.1 148.1 183.6 148.6C184.9 149.8 185.6 150.5 185.6 150.5C185.6 150.5 184.9 149.7 183.8 148.4C183.4 147.9 182.8 147.3 182.2 146.7C182.4 146.4 182.6 146.2 182.8 145.9C183.6 144.9 184.2 144.1 184.7 143.5C184.9 143.2 185.1 143 185.2 142.8C185.3 142.9 185.4 143 185.4 143C185.4 143 185.3 142.9 185.2 142.8C185.3 142.7 185.4 142.6 185.4 142.6C185.4 142.6 185.3 142.7 185.2 142.8C184.9 142.5 184.4 141.9 183.6 141C183.2 140.5 182.6 140 182.1 139.3C183 138.3 183.7 137.5 184.3 136.8C184.9 136.1 185.3 135.6 185.3 135.6C185.3 135.6 184.9 136 184.1 136.6C183.5 137.1 182.6 137.9 181.7 138.7C181 137.9 180.1 137 179.2 136C179.8 135.4 180.4 134.7 181 134.2C181.6 133.6 182 133.1 182.5 132.6C182.9 133 183.2 133.3 183.5 133.6C184.7 134.7 185.4 135.4 185.4 135.4C185.4 135.4 184.8 134.7 183.7 133.4C183.4 133.1 183.1 132.7 182.7 132.3C183.4 131.6 184 130.9 184.4 130.4C184.9 129.9 185.2 129.5 185.4 129.2C185.6 129.4 185.7 129.5 185.7 129.5C185.7 129.5 185.6 129.4 185.4 129.2C185.5 129 185.6 128.9 185.6 128.9C185.6 128.9 185.5 129 185.3 129.1C185 128.8 184.6 128.3 184 127.6C183.4 126.9 182.6 126 181.7 124.9C182.6 123.9 183.4 123 184 122.3C184.5 121.8 184.8 121.3 185.1 121C185.3 121.2 185.5 121.3 185.5 121.3C185.5 121.3 185.4 121.2 185.2 120.9C185.5 120.6 185.6 120.4 185.6 120.4C185.6 120.4 185.4 120.6 185.1 120.8C184.9 120.5 184.6 120.2 184.2 119.7C183.6 119 182.9 118.2 182 117.2C182.5 116.6 183 116.1 183.4 115.6C184.6 114.3 185.2 113.6 185.2 113.6C185.2 113.6 184.5 114.3 183.2 115.4C182.8 115.8 182.2 116.3 181.7 116.8C181.4 116.5 181.1 116.2 180.8 115.8C180.1 115 179.4 114.2 178.6 113.3C179.7 112.2 180.7 111.1 181.6 110.2C182.6 111.1 183.6 111.9 184.2 112.4C184.9 113 185.4 113.4 185.4 113.4C185.4 113.4 185.1 113 184.4 112.2C183.8 111.6 183.1 110.6 182.1 109.6C182.6 109 183.1 108.5 183.5 108.1C184.7 106.8 185.4 106.1 185.4 106.1C185.4 106.1 184.6 106.8 183.3 107.9C182.9 108.3 182.3 108.8 181.8 109.3C181.8 109.3 181.8 109.2 181.7 109.2C180.8 108.2 179.8 107.1 178.7 105.9C179.8 104.8 180.7 103.7 181.6 102.8C181.8 103 182 103.2 182.2 103.3C183.1 104.1 183.8 104.6 184.3 105.1C184.8 105.5 185.1 105.7 185.1 105.7C185.1 105.7 184.9 105.4 184.5 104.9C184.1 104.4 183.5 103.6 182.7 102.8C182.5 102.6 182.3 102.4 182.1 102.2C182.6 101.7 183 101.2 183.4 100.8C184.6 99.5 185.3 98.7 185.3 98.7C185.3 98.7 184.6 99.4 183.3 100.6C182.9 101 182.4 101.4 181.9 101.9C181 100.9 180 99.7 178.8 98.6C179.8 97.5 180.7 96.6 181.4 95.8C182.2 96.5 183 97.2 183.7 97.7C184.7 98.5 185.5 98.9 185.5 98.9C185.5 98.9 185.1 98.1 184.3 97.1C183.8 96.4 183.1 95.6 182.4 94.8C183.5 93.5 184.2 92.8 184.2 92.8C184.2 92.8 183.5 93.4 182.2 94.6C181.9 94.3 181.5 93.9 181.2 93.6C180.3 92.7 179.4 91.9 178.6 91.2C178.7 91.1 178.7 91.1 178.8 91C179.8 89.8 180.4 89.2 180.4 89.2C180.4 89.2 179.7 89.8 178.6 90.8C178.5 90.9 178.5 90.9 178.4 91C178.1 90.8 177.9 90.6 177.7 90.4C176.7 89.6 175.9 89.2 175.9 89.2C175.9 89.2 176.3 90 177.1 91C177.3 91.2 177.5 91.5 177.7 91.7C176.9 92.5 175.8 93.4 174.7 94.4C173.5 93.2 172.3 92.2 171.3 91.3C171.5 91 171.8 90.8 172 90.6C172.9 89.6 173.3 89.1 173.3 89.1C173.3 89.1 172.7 89.6 171.8 90.4C171.6 90.6 171.3 90.8 171.1 91.1C171.1 91.1 171.1 91.1 171 91C170.1 90.2 169.4 89.7 168.8 89.2C168.3 88.8 168 88.6 168 88.6C168 88.6 168.2 88.9 168.6 89.4C169 89.9 169.6 90.7 170.4 91.5C169.6 92.2 168.8 93 167.8 93.9C167.6 94.1 167.4 94.3 167.2 94.5C166.3 93.7 165.4 92.8 164.6 92.1C164.3 91.9 164.1 91.7 163.9 91.5C164.4 90.9 164.8 90.4 165.2 90C165.9 89.2 166.2 88.8 166.2 88.8C166.2 88.8 165.8 89.2 165 89.8C164.6 90.2 164.1 90.6 163.5 91.1C162.8 90.5 162.1 89.9 161.6 89.5C160.9 88.9 160.4 88.5 160.4 88.5C160.4 88.5 160.7 88.9 161.4 89.7C161.8 90.2 162.4 90.8 163 91.5C162.7 91.8 162.3 92.1 161.9 92.5C161.3 93 160.7 93.6 160.1 94.2C159.9 94 159.7 93.8 159.5 93.6C158.5 92.7 157.7 91.9 156.9 91.2C157.5 90.5 158 89.9 158.3 89.5C158.8 88.9 159 88.6 159 88.6C159 88.6 158.7 88.8 158.1 89.3C157.7 89.7 157 90.2 156.3 90.8C156.1 90.6 155.8 90.4 155.6 90.2C154.7 89.4 154.1 88.9 154.1 88.9C154.1 88.9 154.6 89.4 155.4 90.4C155.6 90.6 155.8 90.8 156 91C155.9 91.1 155.8 91.2 155.7 91.2C154.8 92 153.7 93 152.5 94.1C151.3 93.1 150.3 92.1 149.4 91.4C149.5 91.3 149.6 91.1 149.7 91C150.6 89.8 151.1 89 151.1 89C151.1 89 150.2 89.5 149.1 90.4C149 90.5 148.8 90.6 148.7 90.7C148.5 90.6 148.4 90.4 148.2 90.3C147 89.3 146.4 88.7 146.4 88.7C146.4 88.7 147 89.4 148 90.5C148.1 90.6 148.3 90.8 148.4 90.9C147.4 91.8 146.2 92.8 145.1 93.9C145 94 144.9 94.1 144.8 94.2C144.6 94 144.3 93.8 144.1 93.6C142.9 92.5 142.1 91.9 142.1 91.9C142.1 91.9 142.7 92.6 143.9 93.8C144.1 94 144.3 94.2 144.5 94.5C143.3 95.7 142.2 96.9 141.5 97.9C141.4 98 141.3 98.1 141.2 98.3C140.4 97.6 140 97.2 140 97.2C140 97.2 140.4 97.6 141.1 98.4C140.4 99.3 140 99.9 140 99.9C140 99.9 140.6 99.5 141.5 98.8C141.6 98.9 141.7 99 141.8 99.2C142.5 99.9 143.4 100.9 144.4 102C143.7 102.7 143.1 103.4 142.6 104C142.1 104.6 141.7 105.1 141.3 105.6C140.5 104.9 140 104.5 140 104.5C140 104.5 140.4 104.9 141.2 105.7C141 105.9 140.8 106.2 140.7 106.3C140.2 106.9 140 107.2 140 107.2C140 107.2 140.3 107 140.9 106.5C141.1 106.4 141.3 106.2 141.5 106C141.6 106.2 141.8 106.3 141.9 106.5C142.6 107.3 143.5 108.2 144.6 109.3C144.4 109.5 144.2 109.8 143.9 110C142.9 111.1 142 112.1 141.4 112.8C140.4 112 139.9 111.5 139.9 111.5C139.9 111.5 140.4 112 141.3 112.9L141.2 113C140.5 113.8 140.2 114.2 140.2 114.2C140.2 114.2 140.6 113.8 141.4 113.2L141.5 113.1C141.6 113.2 141.7 113.3 141.8 113.4C142.6 114.2 143.6 115.2 144.7 116.3C144.7 116.4 144.6 116.4 144.5 116.5C143.2 117.9 142.1 119.1 141.3 120C140.3 119.2 139.8 118.7 139.8 118.7C139.8 118.7 140.3 119.2 141.2 120.1C141.1 120.2 141 120.3 140.9 120.4C140 121.4 139.6 121.9 139.6 121.9C139.6 121.9 140.2 121.4 141.1 120.6C141.2 120.5 141.3 120.4 141.4 120.3C141.5 120.4 141.6 120.5 141.7 120.6C142.5 121.4 143.5 122.5 144.7 123.6C143.5 124.9 142.5 126.1 141.7 126.9C141.5 127.1 141.4 127.2 141.3 127.4C140.3 126.5 139.7 126 139.7 126C139.7 126 140.2 126.6 141.2 127.6C140.5 128.3 140.2 128.8 140.2 128.8C140.2 128.8 140.6 128.4 141.4 127.8C142.2 128.7 143.3 129.9 144.6 131.3C143.6 132.4 142.7 133.3 142 134.1C141.7 134.4 141.5 134.6 141.3 134.8C141.1 134.7 141 134.5 140.8 134.4C140 133.7 139.5 133.3 139.5 133.3C139.5 133.3 139.9 133.8 140.6 134.6C140.7 134.7 140.9 134.9 141 135.1C140.4 135.7 140.1 136.1 140.1 136.1C140.1 136.1 140.5 135.8 141.1 135.2C141.8 136 142.6 136.9 143.6 138C143.9 138.3 144.2 138.7 144.6 139.1C143.4 140.4 142.5 141.5 141.7 142.3L141.6 142.4C141.2 142.1 140.9 141.8 140.6 141.6C140 141.1 139.6 140.8 139.6 140.8C139.6 140.8 139.9 141.2 140.4 141.8C140.6 142.1 140.9 142.4 141.2 142.8C140.3 143.8 139.8 144.4 139.8 144.4C139.8 144.4 140.4 143.9 141.4 143C141.7 143.4 142.1 143.8 142.5 144.3C143 144.9 143.6 145.6 144.3 146.3C143.2 147.5 142.3 148.5 141.6 149.3C141.6 149.3 141.6 149.4 141.5 149.4C140.6 148.7 139.9 148.3 139.9 148.3C139.9 148.3 140.3 148.9 141 149.8C140.1 150.8 139.6 151.3 139.6 151.3C139.6 151.3 140.2 150.8 141.1 149.9C141.2 150 141.3 150.2 141.5 150.4C142.3 151.3 143.3 152.5 144.4 153.6C143.4 154.7 142.5 155.7 141.8 156.4C141.7 156.5 141.6 156.6 141.5 156.7C141.2 156.4 140.9 156.2 140.6 156.1C140.1 155.8 139.7 155.7 139.7 155.7C139.7 155.7 139.8 156.1 140 156.6C140.2 156.9 140.4 157.3 140.7 157.6C140.3 158.1 140 158.4 140 158.4C140 158.4 140.3 158.1 140.8 157.7C140.9 157.9 141.1 158.1 141.2 158.2C141.7 158.7 142.3 159.1 142.8 159.4C143.3 159.7 143.7 159.8 143.7 159.8C143.7 159.8 143.6 159.4 143.4 158.9C143.2 158.4 142.7 157.8 142.2 157.3C142 157.1 141.9 157 141.7 156.9C141.8 156.8 141.9 156.7 142 156.6C142.8 155.9 143.7 155 144.8 154C145 154.2 145.3 154.5 145.5 154.7C146.6 155.7 147.7 156.7 148.7 157.6L148.6 157.7C147.6 158.8 147 159.5 147 159.5C147 159.5 147.6 158.9 148.7 157.9L148.8 157.8C149.2 158.1 149.5 158.4 149.9 158.6C151.2 159.6 152.1 160.2 152.1 160.2C152.1 160.2 151.5 159.3 150.4 158C150.1 157.7 149.9 157.4 149.6 157C150.4 156.3 151.3 155.4 152.3 154.5C153.3 155.4 154.3 156.3 155.1 157.1C154.7 157.6 154.3 158 153.9 158.4C153.1 159.3 152.6 159.8 152.6 159.8C152.6 159.8 153.1 159.3 154.1 158.5C154.5 158.2 154.9 157.8 155.4 157.3C155.6 157.5 155.8 157.7 156 157.8C157 158.7 157.9 159.4 158.5 159.9C159.1 160.4 159.5 160.7 159.5 160.7C159.5 160.7 159.4 160.6 159.3 160.4C159.4 160.3 159.8 160 160.5 159.4C161.1 158.9 161.9 158.2 162.9 157.3C164.2 158.5 165.3 159.4 166.1 160.1C166.4 160.3 166.6 160.5 166.8 160.7C166.7 160.9 166.6 161 166.6 161C166.6 161 166.7 160.9 166.9 160.8C167.3 161.1 167.5 161.3 167.5 161.3C167.5 161.3 167.3 161.1 167 160.7C167.1 160.6 167.3 160.5 167.5 160.3C168.1 159.8 168.9 159.2 169.8 158.3C170.2 158 170.6 157.6 171 157.2C172.3 158.4 173.4 159.4 174.4 160.2C173.6 161.2 173.1 162 173.1 162C173.1 162 173.8 161.5 174.9 160.7C175.1 160.9 175.3 161 175.4 161.2C176.5 162.1 177.1 162.7 177.1 162.7C177.1 162.7 176.6 162.1 175.6 161C175.5 160.9 175.3 160.7 175.1 160.5C175.2 160.5 175.2 160.4 175.3 160.4C176.2 159.7 177.2 158.8 178.2 157.9C179.4 159.1 180.5 160.2 181.4 161.1C181.3 161.3 181.1 161.5 181 161.6C180.7 162.2 180.5 162.6 180.5 162.6C180.5 162.6 181 162.5 181.5 162.1C181.7 162 181.9 161.9 182.1 161.7C183.2 162.8 183.9 163.4 183.9 163.4C183.9 163.4 183.3 162.7 182.3 161.5C182.7 161.2 183.1 160.9 183.4 160.6C184 160 184.5 159.3 184.9 158.7C185.2 158.1 185.4 157.7 185.4 157.7C185.4 157.7 184.9 157.8 184.4 158.2C184 159.4 183.3 159.9 182.7 160.5ZM181.4 153.8C180.6 154.5 179.8 155.3 179 156.1C178.7 156.4 178.3 156.8 178 157.1C177.9 157 177.8 156.9 177.8 156.8C177 155.9 176.2 155 175.3 154C175.7 153.5 176.2 153.1 176.6 152.6C177.2 152 177.8 151.4 178.3 150.8C179.4 152 180.5 153 181.4 153.8ZM171 156.7C170.1 155.7 169.1 154.7 168.1 153.6L168.2 153.5C169.1 152.7 170 151.8 170.9 150.9C171.9 151.9 172.8 152.8 173.7 153.7C172.7 154.8 171.8 155.8 171 156.7ZM163.3 156.9L163.2 157C162.4 156.1 161.4 155.1 160.4 154C161.4 153.1 162.5 152.1 163.6 151.1C164 151.5 164.5 152 164.9 152.4C165.4 152.8 165.8 153.3 166.2 153.7C165.3 154.8 164.2 155.9 163.3 156.9ZM159.3 152.8C158.7 152.1 158 151.4 157.3 150.8C158.2 150 159 149.1 160 148.2C160.1 148.1 160.2 148 160.3 147.9C161.2 148.7 162 149.5 162.8 150.3C161.7 151.4 160.7 152.4 159.8 153.4C159.6 153.1 159.4 153 159.3 152.8ZM153.1 153.7C152.2 152.8 151.3 151.9 150.4 150.9C150.2 150.7 150 150.5 149.7 150.2C150.6 149.4 151.5 148.5 152.4 147.6C152.7 147.9 152.9 148.1 153.2 148.4C154 149.2 154.8 150 155.6 150.8C154.7 151.9 153.9 152.9 153.1 153.7ZM149 107.3C149.9 108.2 150.8 109.2 151.7 110.1C151.1 110.7 150.6 111.3 150 111.8C149.6 112.2 149.2 112.6 148.9 113C148.5 112.6 148.1 112.2 147.7 111.8C147.1 111.2 146.5 110.7 145.9 110.1C146.8 109.3 147.9 108.3 149 107.3ZM152.9 96C153.7 96.8 154.6 97.7 155.5 98.7L155.6 98.8C154.7 99.7 153.7 100.7 152.7 101.6C152.6 101.7 152.6 101.8 152.5 101.8C151.5 100.9 150.6 100 149.7 99.2C149.8 99.1 149.9 99 150 98.9C151 98 152 97 152.9 96ZM176.1 98.1C176.6 98.5 177 99 177.5 99.4C177.4 99.5 177.3 99.6 177.1 99.7C176.3 100.4 175.5 101.2 174.6 102.1C174.2 101.7 173.8 101.3 173.4 100.9C172.8 100.3 172.2 99.7 171.6 99.2C172.6 98.2 173.5 97.2 174.3 96.3C174.9 96.9 175.5 97.5 176.1 98.1ZM172.4 101.9C172.8 102.3 173.2 102.7 173.6 103.1C172.8 103.9 172 104.7 171.1 105.5C170.9 105.3 170.7 105.1 170.5 104.9C169.8 104.2 169 103.4 168.3 102.7C169.1 101.9 169.9 101 170.7 100.2C171.2 100.7 171.8 101.3 172.4 101.9ZM175.2 111.7C175.9 112.4 176.7 113.2 177.4 113.9C176.4 114.8 175.4 115.8 174.3 116.8C174.2 116.6 174 116.5 173.9 116.3C173.2 115.5 172.5 114.7 171.7 113.9C172.7 112.9 173.6 111.9 174.5 111C174.7 111.2 175 111.5 175.2 111.7ZM179.3 123.5C179.9 124.1 180.4 124.6 180.9 125.1C180.4 125.6 179.9 126.1 179.3 126.6C178.9 126.9 178.6 127.3 178.2 127.7C177.3 126.7 176.4 125.7 175.4 124.7C176.3 123.8 177.1 122.9 177.8 122.1C178.4 122.6 178.9 123.1 179.3 123.5ZM174.5 131.4C173.6 130.5 172.7 129.5 171.7 128.5C172.7 127.5 173.7 126.4 174.7 125.4C175.7 126.4 176.7 127.4 177.7 128.3C176.7 129.3 175.6 130.3 174.5 131.4ZM174.8 138.7C173.9 137.8 173 136.8 172 135.8C172.7 135.1 173.3 134.4 174 133.7C174.2 133.5 174.4 133.2 174.6 133C175.7 134 176.7 135 177.7 136C176.8 136.8 175.8 137.7 174.8 138.6V138.7ZM170.8 149.1C170.1 148.3 169.3 147.5 168.5 146.6C169 146.2 169.4 145.7 169.9 145.3C170.4 144.8 170.9 144.3 171.4 143.8C172.2 144.6 173 145.4 173.7 146.1C173.1 146.7 172.5 147.3 171.9 147.9C171.5 148.3 171.1 148.7 170.8 149.1ZM161.3 146.8C162.2 145.9 163.2 144.9 164.1 144C164.9 144.9 165.7 145.7 166.5 146.6C165.5 147.5 164.6 148.5 163.7 149.4C162.9 148.5 162.1 147.7 161.3 146.8ZM153.4 139.2C153.8 138.8 154.2 138.4 154.7 137.9C155.3 137.3 155.9 136.7 156.5 136.1C157.5 137.1 158.4 138.1 159.4 139.1C158.4 140.1 157.4 141.1 156.4 142.1C155.4 141.1 154.4 140.1 153.4 139.2ZM155.4 143C154.9 143.5 154.5 143.9 154 144.4C153.5 144.9 153 145.4 152.5 145.9C151.5 144.9 150.4 143.9 149.4 142.9C150.4 142 151.4 141 152.4 140C153.4 141 154.4 142 155.4 143ZM169.5 105.8C169.7 106 169.9 106.2 170.1 106.4C170 106.5 170 106.5 169.9 106.6C169 107.4 168.2 108.3 167.3 109.2C167.2 109 167 108.9 166.9 108.7C166.1 107.9 165.4 107.2 164.6 106.4C165.5 105.5 166.4 104.5 167.3 103.6C168.1 104.3 168.8 105.1 169.5 105.8ZM165.9 109.7C166.1 109.9 166.2 110 166.3 110.2C165.5 111 164.6 111.9 163.8 112.7C162.9 111.8 162 110.9 161.1 110.1C162 109.2 162.8 108.3 163.7 107.5C164.4 108.1 165.1 108.9 165.9 109.7ZM171.3 122.2C172.2 123.1 173 123.9 173.9 124.7C172.9 125.6 171.9 126.6 170.9 127.6C169.9 126.6 169 125.6 168 124.6C169 123.6 170 122.6 170.9 121.7C171 121.9 171.2 122 171.3 122.2ZM164 136.3C164.9 137.3 165.9 138.2 166.8 139.2C166.5 139.5 166.3 139.7 166 140C165.4 140.7 164.7 141.3 164.1 142C163.8 141.6 163.4 141.3 163.1 140.9C162.5 140.3 161.9 139.7 161.2 139C161.9 138.3 162.5 137.7 163.2 137C163.5 136.8 163.8 136.6 164 136.3ZM165 135.4C165.8 134.6 166.6 133.7 167.4 132.9C168.4 133.9 169.3 134.8 170.2 135.7C169.4 136.5 168.5 137.4 167.7 138.2C166.8 137.3 165.9 136.3 165 135.4ZM164 134.4C163.9 134.3 163.8 134.2 163.6 134C162.7 133.2 161.9 132.3 161 131.5C161.6 130.9 162.3 130.2 162.9 129.6C163.1 129.4 163.3 129.2 163.4 129.1C164.4 130.1 165.3 131.1 166.3 132C165.7 132.7 164.9 133.5 164 134.4ZM163.6 127C162.8 126.2 162 125.4 161.2 124.6C161.9 123.9 162.6 123.2 163.3 122.5C163.4 122.4 163.6 122.2 163.7 122.1C164.5 122.9 165.4 123.7 166.2 124.5C165.3 125.5 164.4 126.3 163.6 127ZM164.6 128C165.4 127.2 166.2 126.4 167.1 125.5C168.1 126.5 169.1 127.5 170.1 128.4C169.3 129.2 168.4 130.1 167.5 130.9C166.5 130 165.5 129 164.6 128ZM167 123.7C166.2 122.9 165.4 122 164.5 121.2C165.5 120.2 166.4 119.2 167.4 118.3C168.3 119.2 169.1 120 170 120.9C169 121.8 168 122.8 167 123.7ZM163.6 120.3C163.5 120.2 163.4 120.1 163.3 120C162.5 119.2 161.7 118.4 160.9 117.6C161.6 116.9 162.2 116.3 162.9 115.6C163.2 115.3 163.5 115 163.8 114.7C164.7 115.6 165.6 116.5 166.5 117.5C165.5 118.3 164.6 119.3 163.6 120.3ZM164.8 113.6C165.6 112.8 166.5 111.9 167.3 111.1C168.2 112.1 169.1 113 170 113.9C169.2 114.7 168.4 115.5 167.6 116.3C166.6 115.5 165.7 114.5 164.8 113.6ZM160 109C159.1 108.1 158.2 107.2 157.3 106.4C158.2 105.5 159.2 104.5 160.1 103.6C161 104.5 161.8 105.4 162.7 106.4C161.8 107.2 160.9 108.1 160 109ZM156.4 107.3C157.3 108.2 158.2 109.1 159.1 110C158.1 111 157.1 112 156.2 113C155.8 112.6 155.3 112.2 154.9 111.8C154.4 111.3 153.9 110.8 153.4 110.4C154.4 109.3 155.4 108.3 156.4 107.3ZM160.1 111C161 111.9 161.9 112.8 162.8 113.7C162.5 114 162.2 114.3 161.9 114.6C161.2 115.3 160.6 115.9 159.9 116.6C159 115.7 158.1 114.8 157.2 113.9C158.1 112.9 159.1 111.9 160.1 111ZM158.9 117.5C158 118.4 157.2 119.2 156.4 120.1C156 119.7 155.6 119.3 155.2 118.9C154.7 118.4 154.1 117.9 153.6 117.4C154.5 116.6 155.4 115.7 156.3 114.8C157.1 115.7 158 116.6 158.9 117.5ZM159.9 118.5C160.7 119.3 161.5 120.1 162.3 120.9C162.4 121 162.5 121.1 162.6 121.2C162.5 121.3 162.3 121.5 162.2 121.6C161.5 122.3 160.8 123 160.1 123.7C159.1 122.8 158.2 121.9 157.2 120.9C158.2 120.1 159 119.3 159.9 118.5ZM159.2 124.7C158.4 125.5 157.6 126.4 156.7 127.2C156.2 126.7 155.7 126.2 155.2 125.7C154.7 125.2 154.2 124.8 153.8 124.3C154.1 124 154.4 123.7 154.7 123.5C155.2 123 155.8 122.4 156.4 121.9C157.3 122.8 158.3 123.7 159.2 124.7ZM160.2 125.7C161 126.5 161.8 127.3 162.6 128.1C162.4 128.3 162.2 128.5 162 128.6C161.4 129.2 160.7 129.9 160.1 130.5C159.3 129.7 158.5 128.9 157.7 128.1C158.5 127.3 159.4 126.5 160.2 125.7ZM159.2 131.5C158.3 132.4 157.4 133.4 156.5 134.3C156 133.8 155.5 133.3 155 132.8C154.7 132.5 154.4 132.2 154 131.8C154.3 131.5 154.6 131.3 154.8 131C155.4 130.4 156.1 129.7 156.8 129C157.6 129.8 158.4 130.6 159.2 131.5ZM160.2 132.4C161 133.3 161.9 134.1 162.7 134.9C162.8 135 162.9 135.1 163.1 135.3C162.9 135.5 162.6 135.8 162.4 136C161.7 136.7 161.1 137.3 160.4 138C159.4 137 158.4 136.1 157.5 135.1C158.3 134.3 159.2 133.4 160.2 132.4ZM160.3 140C160.9 140.6 161.5 141.2 162.1 141.9C162.4 142.3 162.8 142.6 163.1 143C162.1 144 161.2 145 160.3 145.9C159.9 145.5 159.5 145.1 159.1 144.7C158.5 144.1 157.9 143.5 157.3 143C158.3 142 159.3 141 160.3 140ZM165.1 143C165.8 142.3 166.4 141.7 167.1 141C167.3 140.7 167.6 140.5 167.8 140.2C168.7 141.1 169.5 142 170.4 142.8C169.9 143.3 169.4 143.8 168.9 144.3C168.5 144.7 168 145.2 167.6 145.6C166.7 144.7 165.9 143.9 165.1 143ZM172.2 143C173.1 142.1 174 141.2 174.9 140.3C175.7 141.1 176.5 141.9 177.3 142.7C177.1 142.9 176.9 143.1 176.6 143.3C175.9 144 175.2 144.7 174.4 145.4C173.7 144.6 173 143.8 172.2 143ZM171.3 142C170.5 141.1 169.6 140.2 168.7 139.3C169.5 138.4 170.4 137.6 171.2 136.7C172.2 137.7 173.1 138.6 174 139.5C173.1 140.3 172.2 141.1 171.3 142ZM173.1 132.8C172.4 133.5 171.8 134.1 171.1 134.8C170.2 133.9 169.3 132.9 168.3 131.9C169.2 131 170 130.2 170.8 129.3C171.8 130.3 172.7 131.2 173.7 132.1C173.5 132.4 173.3 132.6 173.1 132.8ZM174.7 123.9C173.9 123 173.1 122.2 172.2 121.3C172.1 121.2 171.9 121 171.8 120.9C172.6 120.1 173.4 119.3 174.2 118.5C175.3 119.6 176.3 120.6 177.3 121.6C176.5 122.3 175.6 123.1 174.7 123.9ZM170.9 120C170.1 119.1 169.2 118.2 168.3 117.3C169.1 116.5 169.9 115.6 170.7 114.8C171.4 115.6 172.2 116.4 172.9 117.1C173.1 117.3 173.2 117.4 173.4 117.6C172.6 118.4 171.8 119.2 170.9 120ZM170.9 113C170 112 169.1 111.1 168.2 110.1C169.1 109.2 170 108.3 170.8 107.4L170.9 107.3C171.8 108.3 172.8 109.2 173.7 110.2C172.8 111.1 171.9 112 170.9 113ZM171.9 106.3C172.7 105.4 173.5 104.6 174.3 103.8C175.3 104.8 176.3 105.8 177.3 106.7C176.4 107.5 175.6 108.4 174.6 109.3C173.8 108.3 172.9 107.3 171.9 106.3ZM167.4 101.8C166.5 100.9 165.5 100 164.6 99.1C164.6 99.1 164.6 99.1 164.5 99C165.4 98.1 166.2 97.2 166.9 96.4C167.8 97.4 168.8 98.4 169.8 99.4C169.1 100.1 168.3 100.9 167.4 101.8ZM163.8 99.9C164.7 100.8 165.6 101.8 166.5 102.7C165.6 103.6 164.7 104.5 163.7 105.4C162.8 104.5 161.9 103.6 161 102.7C161.7 102 162.5 101.2 163.2 100.5C163.3 100.2 163.5 100.1 163.8 99.9C163.7 99.9 163.7 99.9 163.8 99.9ZM162.3 99.6C161.6 100.3 160.8 101 160.1 101.8C160 101.7 159.8 101.5 159.7 101.4C158.9 100.6 158.1 99.8 157.4 99.1C157.8 98.7 158.2 98.3 158.5 97.9C159.1 97.3 159.7 96.7 160.2 96.1C161.1 97 162 98 163 99.1C162.7 99.2 162.5 99.4 162.3 99.6ZM158.8 102.2C158.9 102.3 159.1 102.5 159.2 102.6C158.3 103.5 157.3 104.5 156.3 105.4C155.4 104.5 154.4 103.6 153.6 102.8C153.7 102.7 153.7 102.7 153.8 102.6C154.7 101.6 155.7 100.7 156.6 99.8C157.3 100.6 158 101.4 158.8 102.2ZM149.2 99.9C150 100.8 150.9 101.7 151.8 102.6C150.7 103.7 149.7 104.7 148.7 105.8C148.3 105.4 147.9 105 147.5 104.6C146.9 104 146.4 103.5 145.8 103C146.9 102 148 101 149.2 99.9ZM152.8 103.6C153.7 104.5 154.5 105.4 155.5 106.3C154.5 107.3 153.5 108.3 152.5 109.3C151.5 108.4 150.6 107.5 149.7 106.6C150.7 105.6 151.7 104.6 152.8 103.6ZM150.9 112.7C151.5 112.2 152 111.6 152.6 111C153.1 111.5 153.6 112 154 112.5C154.4 112.9 154.8 113.4 155.3 113.8C154.4 114.7 153.5 115.6 152.7 116.5C151.7 115.6 150.7 114.6 149.8 113.8C150.1 113.4 150.5 113.1 150.9 112.7ZM151.9 117.3C151 118.3 150.1 119.2 149.2 120.1C148.7 119.6 148.2 119.2 147.7 118.8C147.1 118.3 146.5 117.8 146 117.3C146.9 116.4 148 115.5 149.1 114.4C149.9 115.4 150.9 116.3 151.9 117.3ZM152.7 118.2C153.2 118.7 153.7 119.2 154.3 119.8C154.7 120.2 155.1 120.6 155.5 121C155 121.6 154.4 122.1 153.9 122.7C153.6 123 153.3 123.3 153 123.6C152.5 123.1 151.9 122.6 151.4 122.1C150.9 121.7 150.5 121.3 150 120.9C150.8 120 151.8 119.1 152.7 118.2ZM150.6 122.8C151.1 123.3 151.6 123.8 152.1 124.4C151.1 125.5 150.1 126.5 149.1 127.5C148.5 127 148 126.5 147.4 126C146.9 125.5 146.3 125.1 145.8 124.6C146.1 124.3 146.4 124 146.7 123.7C147.4 123 148.2 122.2 149.1 121.5C149.7 121.9 150.2 122.3 150.6 122.8ZM153 125.2C153.5 125.7 153.9 126.2 154.4 126.7C154.9 127.2 155.4 127.7 155.9 128.2C155.3 128.9 154.6 129.6 154 130.2C153.7 130.5 153.5 130.8 153.2 131.1C152.5 130.4 151.9 129.8 151.2 129.2C150.8 128.8 150.4 128.5 150 128.2C150.9 127.1 151.9 126.2 153 125.2ZM150.4 129.9C151 130.5 151.7 131.2 152.3 131.9C151.2 133.1 150.1 134.2 149.1 135.3C148 134.3 147 133.3 146 132.4C145.9 132.3 145.8 132.2 145.7 132.1C146.3 131.6 146.9 131 147.5 130.4C148 129.9 148.6 129.3 149.2 128.8C149.6 129.1 150 129.5 150.4 129.9ZM153.1 132.7C153.4 133 153.7 133.4 154.1 133.7C154.6 134.2 155.1 134.7 155.6 135.2C155 135.8 154.4 136.5 153.8 137.1C153.4 137.5 153 138 152.5 138.4C152.4 138.3 152.3 138.2 152.2 138.1C151.4 137.3 150.6 136.6 149.9 135.9C150.9 134.8 152 133.8 153.1 132.7ZM151.3 138.9C151.4 139 151.5 139.1 151.6 139.2C150.6 140.3 149.6 141.3 148.7 142.2C147.7 141.2 146.7 140.3 145.8 139.5C146.3 139 146.8 138.6 147.3 138.1C147.8 137.6 148.4 137.1 148.9 136.5C149.8 137.4 150.5 138.1 151.3 138.9ZM148.6 143.8C149.6 144.8 150.6 145.9 151.7 146.9C150.8 147.8 149.9 148.7 149.1 149.6C148 148.5 146.9 147.4 145.8 146.5C146.3 146 146.8 145.6 147.3 145C147.7 144.7 148.1 144.3 148.6 143.8ZM154.2 147.6C153.9 147.3 153.7 147.1 153.4 146.8C153.9 146.3 154.4 145.8 154.9 145.3C155.4 144.9 155.8 144.4 156.3 143.9C156.9 144.5 157.5 145.1 158.1 145.7C158.5 146.1 159 146.5 159.4 146.9C159.3 147 159.2 147.1 159.1 147.2C158.2 148.1 157.4 149 156.6 149.9C155.8 149.2 155 148.4 154.2 147.6ZM165.9 151.5C165.5 151.1 165.1 150.7 164.7 150.2C165.6 149.3 166.6 148.4 167.5 147.5C168.3 148.3 169.1 149.2 169.9 150C169 150.9 168.1 151.8 167.3 152.7L167.2 152.8C166.8 152.3 166.3 151.9 165.9 151.5ZM171.7 150.1C172.1 149.7 172.5 149.3 172.9 148.9C173.5 148.3 174.1 147.7 174.7 147.1C175.7 148.1 176.6 149 177.4 149.8C176.8 150.4 176.2 151 175.6 151.6C175.2 152 174.8 152.5 174.3 152.9C173.5 152.1 172.6 151.1 171.7 150.1ZM178 149.3C177.2 148.4 176.3 147.4 175.4 146.4C176.1 145.6 176.9 144.9 177.6 144.2C177.8 144 178 143.7 178.2 143.5C178.2 143.5 178.2 143.5 178.3 143.6C179.3 144.6 180.3 145.5 181.2 146.3C180.1 147.2 179.1 148.2 178 149.3ZM183.3 141.2C184.2 142 184.8 142.5 185.1 142.8C184.9 142.9 184.7 143.1 184.4 143.3C183.9 143.8 183 144.4 182.1 145.3C181.9 145.5 181.6 145.7 181.4 145.9C180.6 145 179.7 144 178.7 143C178.7 143 178.7 142.9 178.6 142.9C179.6 141.8 180.5 140.8 181.4 139.9C181.5 139.8 181.6 139.7 181.6 139.6C182.3 140.2 182.9 140.7 183.3 141.2ZM181.2 139.2C181.1 139.3 181 139.3 181 139.4C180.1 140.2 179.1 141.1 178 142.1C177.3 141.3 176.5 140.5 175.7 139.6L175.8 139.5C176.8 138.5 177.7 137.6 178.5 136.7C179.5 137.6 180.4 138.4 181.2 139.2ZM180.3 133.7C179.7 134.2 179.1 134.8 178.4 135.4C177.4 134.4 176.4 133.3 175.4 132.2C176.5 131.1 177.5 129.9 178.4 128.9C179.7 130.2 180.9 131.3 181.9 132.2C181.4 132.7 180.8 133.2 180.3 133.7ZM183.9 128C184.6 128.6 185 129.1 185.3 129.3C185 129.5 184.7 129.8 184.1 130.3C183.6 130.8 182.9 131.3 182.2 131.9C181.3 130.9 180.2 129.7 178.9 128.3C179.3 127.9 179.6 127.5 180 127.1C180.5 126.5 181 126 181.5 125.5C182.4 126.5 183.2 127.3 183.9 128ZM184.1 120.3C184.5 120.7 184.9 121 185.1 121.2C184.8 121.5 184.4 121.8 183.9 122.3C183.2 122.9 182.4 123.7 181.4 124.6C180.9 124.1 180.5 123.5 179.9 122.9C179.4 122.4 179 121.9 178.5 121.3L178.6 121.2C179.8 120 180.8 118.9 181.7 117.9C182.6 118.9 183.4 119.7 184.1 120.3ZM181.3 117.7C180.3 118.6 179.2 119.6 178 120.8L177.9 120.9C177 119.9 176 118.8 175 117.6C176 116.5 177 115.5 178 114.5C178.8 115.3 179.6 116.1 180.4 116.8C180.7 117.1 181 117.4 181.3 117.7ZM181.3 110.3C180.4 111.1 179.3 112.1 178.2 113.2C177.5 112.5 176.9 111.7 176.1 110.9C175.9 110.6 175.6 110.4 175.3 110.1C176.2 109.1 177.1 108.2 177.9 107.3C179.2 108.4 180.3 109.4 181.3 110.3ZM181.3 103C180.4 103.8 179.4 104.8 178.3 105.9C177.4 104.9 176.4 103.9 175.3 102.9C176.1 102 176.9 101.2 177.7 100.4C177.8 100.3 177.9 100.2 178 100C179.2 101.1 180.3 102.1 181.3 103ZM178 92.4C178.7 93.2 179.5 94.1 180.3 95C180.6 95.3 181 95.7 181.3 96C180.5 96.7 179.5 97.6 178.5 98.6C178.1 98.1 177.6 97.7 177.1 97.2C176.5 96.6 175.9 96 175.3 95.4C176.3 94.2 177.2 93.2 178 92.4ZM168.4 94.9C169.3 93.9 170.1 93.1 170.8 92.3C171.7 93.3 172.7 94.5 173.9 95.7C173 96.6 172 97.5 171 98.5C169.9 97.5 168.9 96.5 167.9 95.6C168 95.3 168.2 95.1 168.4 94.9ZM162.4 93.5C162.7 93.1 163.1 92.8 163.4 92.4C163.6 92.6 163.8 92.9 164 93.1C164.7 93.9 165.5 94.7 166.4 95.6C165.6 96.4 164.7 97.2 163.8 98C162.8 97 161.8 96.1 160.8 95.2C161.3 94.7 161.9 94.1 162.4 93.5ZM156.3 92.3C156.4 92.2 156.4 92.1 156.5 92C157.2 92.8 157.9 93.6 158.8 94.6C159 94.8 159.2 95 159.3 95.2C158.7 95.8 158.1 96.3 157.4 96.9C157 97.3 156.6 97.7 156.2 98L156.1 97.9C155.1 97 154.2 96.2 153.3 95.4C154.5 94.3 155.5 93.2 156.3 92.3ZM152 95.1C151 96 150 97 149 98C148.9 98.1 148.8 98.2 148.7 98.3C147.7 97.3 146.7 96.5 145.9 95.7C146 95.6 146.1 95.5 146.2 95.4C147.3 94.3 148.4 93.1 149.2 92.1C150 93 150.9 94 152 95.1ZM142.2 99.6C142.1 99.5 142 99.4 141.9 99.3C142 99.2 142.1 99.1 142.2 99C143.2 98.2 144.4 97.1 145.6 96C146.4 96.8 147.2 97.7 148.2 98.8C147.1 100 146 101.1 145 102.2C143.9 101.2 142.9 100.3 142.2 99.6ZM142.3 107C142.1 106.8 142 106.7 141.8 106.6C142.3 106.2 142.8 105.8 143.3 105.3C143.9 104.8 144.6 104.2 145.3 103.5C145.8 104 146.3 104.6 146.9 105.2C147.3 105.6 147.7 106 148.1 106.4C147 107.5 146.1 108.6 145.2 109.5C144 108.5 143 107.7 142.3 107ZM142.2 114C142.1 113.9 142 113.8 141.9 113.7C142.6 113.1 143.6 112.2 144.7 111.2C144.9 111 145.2 110.8 145.4 110.6C145.9 111.2 146.5 111.8 147.1 112.4C147.5 112.8 147.9 113.2 148.3 113.6C147.3 114.7 146.3 115.7 145.4 116.7C144.1 115.7 143 114.8 142.2 114ZM142.2 121.3C142.1 121.2 142 121.1 141.9 121.1C142.8 120.3 144 119.2 145.4 117.9C145.5 117.9 145.5 117.8 145.6 117.7C146.1 118.2 146.7 118.8 147.2 119.3C147.7 119.7 148.1 120.2 148.6 120.7C147.8 121.5 147.1 122.3 146.4 123.1C146.1 123.4 145.8 123.8 145.5 124.1C144.1 123 143 122.1 142.2 121.3ZM141.7 128.5C141.8 128.4 142 128.3 142.1 128.1C142.9 127.3 144.1 126.3 145.4 125.1C145.9 125.6 146.4 126.1 146.9 126.6C147.4 127.1 147.9 127.6 148.5 128.1C147.9 128.7 147.4 129.3 146.9 129.8C146.3 130.4 145.7 131 145.2 131.6C143.8 130.3 142.6 129.3 141.7 128.5ZM144.4 138.2C143.3 137.2 142.4 136.4 141.6 135.7C141.8 135.5 142.1 135.3 142.3 135C143 134.3 144 133.5 145.1 132.5C145.2 132.6 145.3 132.7 145.4 132.9C146.3 133.8 147.3 134.9 148.3 136C147.8 136.6 147.2 137.1 146.7 137.7C146.2 138.2 145.7 138.7 145.3 139.2C145.1 138.8 144.7 138.5 144.4 138.2ZM143.3 144.4C142.8 144 142.4 143.6 142 143.3C142 143.3 142 143.3 142.1 143.2C142.9 142.4 144 141.4 145.2 140.3C146 141.2 147 142.2 147.9 143.2C147.5 143.7 147 144.1 146.6 144.5C146.1 145 145.6 145.6 145.1 146.1C144.5 145.5 143.9 144.9 143.3 144.4ZM142.3 150.5C142.1 150.4 142 150.3 141.9 150.2C141.9 150.2 141.9 150.2 142 150.2C142.8 149.5 143.8 148.5 145 147.4C146 148.5 147.1 149.6 148.2 150.7C147.8 151.1 147.5 151.5 147.1 151.8C146.6 152.3 146.2 152.8 145.7 153.3C144.4 152.2 143.3 151.2 142.3 150.5ZM149.7 157.4C148.8 156.4 147.8 155.4 146.8 154.3C146.6 154.1 146.3 153.9 146.1 153.7C146.6 153.3 147 152.8 147.5 152.3C147.9 152 148.2 151.6 148.6 151.2C148.8 151.4 149.1 151.7 149.3 151.9C150.2 152.8 151.2 153.7 152.1 154.6C151.2 155.7 150.4 156.7 149.7 157.4ZM153.6 154.3C154.5 153.4 155.4 152.6 156.3 151.7C157 152.4 157.7 153 158.3 153.7C158.5 153.9 158.7 154.1 158.9 154.2C158.5 154.6 158.2 155 157.8 155.3C157.2 155.9 156.6 156.5 156.1 157.1C155.4 156.2 154.5 155.3 153.6 154.3ZM160.6 160C160 160.6 159.7 161 159.6 161.1C159.5 160.9 159.3 160.7 159.1 160.5C158.6 159.9 157.9 159 157 158.1C156.9 157.9 156.7 157.7 156.5 157.6C157.1 157.1 157.7 156.6 158.3 156C158.7 155.7 159.1 155.3 159.5 154.9C160.6 155.9 161.6 156.9 162.6 157.7C161.8 158.6 161.1 159.4 160.6 160ZM169.4 158.5C168.6 159.5 168 160.3 167.5 160.9C167.3 161.1 167.2 161.3 167.1 161.4C166.9 161.2 166.8 161 166.6 160.8C165.9 160 165 158.9 163.8 157.6L163.9 157.5C164.9 156.6 166 155.6 167.2 154.4C168.3 155.4 169.4 156.4 170.4 157.3C170.1 157.7 169.7 158.2 169.4 158.5ZM174.9 160.6L174.8 160.7C174 159.8 172.9 158.7 171.7 157.4C172.6 156.6 173.5 155.6 174.5 154.7C175.4 155.6 176.3 156.5 177.1 157.4C177.2 157.5 177.3 157.6 177.4 157.7C176.5 158.7 175.6 159.8 174.9 160.6Z" fill="#25262A"/>
<path d="M254.6 62.7001C251.6 60.0001 247.6 59.5001 245.7 61.6001L183.3 130.8L194.2 140.6L256.6 71.4001C258.5 69.3001 257.6 65.4001 254.6 62.7001Z" fill="white"/>
<path d="M255.4 62C252.3 59.5 247.8 57.9 244.7 61.3C243.3 62.9 241.8 64.5 240.4 66.1C234 73.1 227.7 80.2 221.3 87.2C208.7 101.1 196.2 115 183.6 129C183.3 129.4 182.9 129.8 182.6 130.1C182.2 130.5 182.2 131.2 182.6 131.6C186.2 134.9 189.8 138.1 193.5 141.4C193.9 141.8 194.6 141.8 195 141.4C205.6 129.7 216.1 118 226.7 106.3C233.9 98.4 241 90.4 248.2 82.5C251.5 78.9 255.2 75.4 258.1 71.4C260.2 68.4 257.5 64.1 255.4 62C254.4 61 252.9 62.5 253.9 63.5C255.7 65.4 257.8 68.6 255.6 71C255.1 71.6 254.6 72.1 254 72.7C251.9 75.1 249.7 77.4 247.6 79.8C240.6 87.6 233.5 95.4 226.5 103.2C215.5 115.4 204.5 127.6 193.4 139.8C193.9 139.8 194.4 139.8 194.9 139.8C191.3 136.5 187.7 133.3 184 130C184 130.5 184 131 184 131.5C194.6 119.8 205.1 108.1 215.7 96.4C222.9 88.5 230 80.5 237.2 72.6C239.5 70.1 241.8 67.5 244.1 65C245.6 63.3 246.8 61.5 249.3 61.4C251 61.4 252.6 62.5 253.8 63.5C254.9 64.3 256.5 62.8 255.4 62Z" fill="#25262A"/>
<path d="M194.2 140.6C192.3 142.7 188.3 142.3 185.3 139.6C182.3 136.9 181.4 133 183.3 130.9C185.2 128.8 189.2 129.2 192.2 131.9C195.2 134.6 196.1 138.5 194.2 140.6Z" fill="white"/>
<path d="M193.4 139.9C189.4 143.8 180.6 136 184 131.6C187.5 127.2 196.9 135.5 193.4 139.9C192.6 141 194.1 142.5 194.9 141.4C200.1 134.8 188.6 124.3 182.5 130.1C179.6 132.9 181.8 137.5 184 139.9C186.7 142.8 191.8 144.4 194.9 141.4C195.9 140.4 194.4 138.9 193.4 139.9Z" fill="#25262A"/>
<path d="M189.9 134.5C188.7 133.4 187.1 133.2 186.4 134.1L116.6 211.5L120.9 215.4L190.7 138C191.4 137.1 191.1 135.5 189.9 134.5Z" fill="white"/>
<path d="M190.4 133.6C185.9 130.4 182.2 137.1 179.6 140C173.2 147.1 166.7 154.2 160.3 161.4C146.7 176.5 133.1 191.5 119.5 206.6C118.3 208 117 209.4 115.8 210.7C115.4 211.1 115.4 211.8 115.8 212.2C117.2 213.5 118.7 214.8 120.1 216.1C120.5 216.5 121.2 216.5 121.6 216.1C144.3 191 167 165.8 189.7 140.7C191.7 138.5 193.3 136.7 190.7 133.8C189.8 132.8 188.3 134.3 189.2 135.3C191 137.3 188.8 138.6 187.5 140C185.3 142.4 183.1 144.9 180.9 147.3C174 155 167 162.7 160.1 170.4C147.4 184.5 134.7 198.5 122 212.6C121.4 213.3 120.8 213.9 120.2 214.6C120.7 214.6 121.2 214.6 121.7 214.6C120.3 213.3 118.8 212 117.4 210.7C117.4 211.2 117.4 211.7 117.4 212.2C140.1 187.1 162.8 161.9 185.5 136.8C186.7 135.5 187.3 133.9 189.5 135.4C190.5 136.2 191.5 134.3 190.4 133.6Z" fill="#25262A"/>
<path d="M197.7 131C197.7 131 198.5 130 199.9 128.4C201.3 126.7 203.3 124.3 205.7 121.5C208.1 118.7 210.9 115.4 214 111.9C217.1 108.4 220.4 104.7 223.7 101C227 97.3 230.4 93.6 233.5 90.2C236.6 86.7 239.6 83.6 242.2 80.9C244.7 78.2 246.9 75.9 248.4 74.4C249.9 72.8 250.8 72 250.8 72C250.8 72 250 73 248.6 74.6C247.2 76.3 245.2 78.7 242.8 81.5C240.4 84.3 237.6 87.6 234.5 91.1C231.4 94.6 228.1 98.3 224.8 102C221.5 105.7 218.1 109.4 215 112.8C211.9 116.2 208.9 119.4 206.3 122.1C203.8 124.8 201.6 127.1 200.1 128.6C198.6 130.1 197.7 131 197.7 131Z" fill="#25262A"/>
<path d="M317.3 127.3H300.8C298.1 127.3 295.9 125.1 295.9 122.3V34.2001C295.9 31.5001 298.1 29.4001 300.9 29.6001L317.4 30.8001C320.1 31.0001 322.3 33.4001 322.3 36.1001V122.4C322.3 125.1 320.1 127.3 317.3 127.3ZM300.6 31.0001C298.8 31.0001 297.4 32.4001 297.4 34.2001V122.4C297.4 124.4 299 125.9 300.9 125.9H317.4C319.4 125.9 320.9 124.3 320.9 122.4V36.1001C320.9 34.1001 319.3 32.4001 317.3 32.2001L300.8 31.0001C300.7 31.0001 300.6 31.0001 300.6 31.0001Z" fill="white"/>
<path d="M347.7 97.9C347.4 97.9 347 97.9 346.6 97.8L334.5 95C331.9 94.4 329.8 91.8 329.8 89.1V37.9C329.8 35.9 330.9 34.5 332.7 34.5C333.3 34.5 334 34.7 334.6 35L347.5 41.9C349.8 43.1 351.6 46.2 351.6 48.8V93.8C351.6 96.2 349.9 97.9 347.7 97.9ZM332.7 35.9C331.8 35.9 331.3 36.6 331.3 37.9V89.2C331.3 91.2 332.9 93.3 334.9 93.7L347 96.4C348.8 96.8 350.3 95.6 350.3 93.8V48.8C350.3 46.7 348.8 44.2 346.9 43.2L334 36.3C333.5 36 333.1 35.9 332.7 35.9Z" fill="white"/>
<path d="M259.7 19.3999C259.7 24.6999 251.9 28.2999 248.1 28.2999C244.3 28.2999 243.2 23.4999 243.2 18.1999C243.2 12.8999 244.1 8.8999 247.9 8.8999C251.6 8.8999 259.7 14.1999 259.7 19.3999Z" fill="#25262A"/>
<path d="M253.8 18.5999C253.8 23.2999 251 27.0999 247.4 27.0999C243.9 27.0999 241.1 23.2999 241.1 18.5999C241.1 13.8999 243.9 10.0999 247.4 10.0999C251 10.0999 253.8 13.8999 253.8 18.5999Z" fill="white"/>
<path d="M247.5 28.2999C243.3 28.2999 239.9 23.8999 239.9 18.5999C239.9 13.1999 243.3 8.8999 247.5 8.8999C251.7 8.8999 255.1 13.2999 255.1 18.5999C255.1 23.8999 251.7 28.2999 247.5 28.2999ZM247.5 11.2999C244.7 11.2999 242.4 14.4999 242.4 18.4999C242.4 22.4999 244.7 25.6999 247.5 25.6999C250.3 25.6999 252.6 22.4999 252.6 18.4999C252.6 14.5999 250.3 11.2999 247.5 11.2999Z" fill="#25262A"/>
<path d="M277.5 15.7C277.5 21.3 269.2 25.2 265.1 25.2C261.1 25.2 259.8 20.1 259.8 14.4C259.8 8.8 260.8 4.5 264.8 4.5C268.8 4.5 277.5 10.1 277.5 15.7Z" fill="#25262A"/>
<path d="M271.3 14.7998C271.3 19.7998 268.3 23.7998 264.5 23.7998C260.8 23.7998 257.7 19.6998 257.7 14.7998C257.7 9.7998 260.7 5.7998 264.5 5.7998C268.2 5.7998 271.3 9.7998 271.3 14.7998Z" fill="white"/>
<path d="M264.5 25.1999C260 25.1999 256.4 20.5999 256.4 14.7999C256.4 9.0999 260 4.3999 264.5 4.3999C269 4.3999 272.6 9.0999 272.6 14.7999C272.6 20.4999 269 25.1999 264.5 25.1999ZM264.5 7.0999C261.5 7.0999 259 10.5999 259 14.7999C259 19.0999 261.4 22.4999 264.5 22.4999C267.5 22.4999 270 18.9999 270 14.7999C269.9 10.5999 267.5 7.0999 264.5 7.0999Z" fill="#25262A"/>
<path d="M295.4 12C295.4 18 286.5 22.1 282.2 22.1C277.9 22.1 276.5 16.6 276.5 10.6C276.5 4.6 277.5 0 281.8 0C286.2 0.1 295.4 6 295.4 12Z" fill="#25262A"/>
<path d="M288.7 11.0999C288.7 16.3999 285.5 20.7999 281.4 20.7999C277.4 20.7999 274.2 16.4999 274.2 11.0999C274.2 5.7999 277.4 1.3999 281.4 1.3999C285.5 1.3999 288.7 5.6999 288.7 11.0999Z" fill="white"/>
<path d="M281.5 22.2C276.7 22.2 272.8 17.2 272.8 11.1C272.8 5 276.7 0 281.5 0C286.3 0 290.2 5 290.2 11.1C290.1 17.2 286.3 22.2 281.5 22.2ZM281.5 2.8C278.3 2.8 275.7 6.5 275.7 11C275.7 15.5 278.3 19.2 281.5 19.2C284.7 19.2 287.3 15.5 287.3 11C287.3 6.5 284.7 2.8 281.5 2.8Z" fill="#25262A"/>
<path d="M247.3 23.8C247.3 23.8 247.1 23.8 246.7 23.8C246.5 23.8 246.3 23.7 246 23.6C245.8 23.4 245.5 23.3 245.3 23C244.8 22.5 244.4 21.8 244.2 21.1C243.9 20.3 243.8 19.5 243.8 18.6C243.8 18.1 243.8 17.8 243.9 17.3C244 16.9 244.1 16.4 244.2 16C244.3 15.6 244.5 15.2 244.7 14.9C244.9 14.6 245.1 14.3 245.3 14C245.5 13.7 245.8 13.6 246 13.4C246.3 13.3 246.5 13.2 246.7 13.2C247.1 13.2 247.3 13.2 247.3 13.2C247.3 13.2 247.1 13.3 246.8 13.4C246.7 13.5 246.5 13.7 246.4 13.8C246.3 14 246.1 14.2 246 14.4C245.9 14.7 245.8 14.9 245.7 15.2C245.6 15.5 245.5 15.8 245.4 16.2C245.3 16.5 245.3 16.9 245.3 17.2C245.3 17.5 245.3 18 245.2 18.3C245.2 18.7 245.2 19 245.3 19.4C245.4 19.8 245.4 20.1 245.5 20.5C245.6 20.8 245.6 21.2 245.8 21.5C245.9 21.8 246 22.1 246.1 22.3C246.2 22.5 246.4 22.7 246.5 22.9C246.7 23 246.8 23.2 246.9 23.3C247.1 23.7 247.3 23.8 247.3 23.8Z" fill="#25262A"/>
<path d="M264 20.8C264 20.8 263.8 20.9 263.3 20.8C262.9 20.7 262.3 20.4 261.9 19.8C261 18.7 260.4 16.8 260.4 14.9C260.4 14.4 260.4 14 260.5 13.5C260.6 13 260.7 12.6 260.8 12.2C261.1 11.3 261.4 10.6 261.9 10C262.3 9.40001 262.9 9.10001 263.3 9.00001C263.7 8.90001 264 9.00001 264 9.00001C264 9.00001 263.8 9.00001 263.5 9.30001C263.2 9.50001 262.9 9.90001 262.7 10.5C262.5 11.1 262.3 11.8 262.1 12.5C262 12.9 262 13.3 262 13.7C262 14.1 262 14.5 262 15C262 16.7 262.2 18.4 262.7 19.5C262.9 20.1 263.2 20.5 263.5 20.7C263.8 20.8 264 20.8 264 20.8Z" fill="#25262A"/>
<path d="M280.8 17.4001C280.8 17.4001 280.6 17.5001 280.1 17.4001C279.7 17.3001 279.1 16.9001 278.7 16.3001C278.2 15.7001 277.9 14.9001 277.6 14.0001C277.3 13.1001 277.2 12.1001 277.2 11.1001C277.2 10.6001 277.2 10.1001 277.3 9.60006C277.4 9.10006 277.5 8.70006 277.6 8.20006C277.8 7.30006 278.2 6.50006 278.7 5.90006C279.1 5.30006 279.7 4.90006 280.1 4.80006C280.5 4.70006 280.8 4.80006 280.8 4.80006C280.8 4.80006 280.5 4.80006 280.2 5.10006C279.9 5.30006 279.6 5.80006 279.4 6.40006C279.2 7.00006 279 7.80006 278.9 8.60006C278.8 9.00006 278.8 9.40006 278.8 9.90006C278.8 10.3001 278.7 10.8001 278.7 11.2001C278.7 13.0001 278.9 14.8001 279.4 16.0001C279.7 16.6001 279.9 17.1001 280.3 17.3001C280.5 17.4001 280.8 17.4001 280.8 17.4001Z" fill="#25262A"/>
<path d="M360.5 207.9C360.5 207.9 360.3 207.9 359.9 207.9C359.5 207.9 359 208 358.3 207.9C357.6 207.9 356.7 207.7 355.8 207.5C354.9 207.2 353.8 206.8 352.7 206.2C351.6 205.6 350.6 204.8 349.6 203.7C348.6 202.7 347.7 201.5 347 200.1C346.2 198.7 345.6 197.3 345.2 195.7C344.8 194.1 344.6 192.5 344.6 190.8C344.7 189.9 344.6 189.3 344.8 188.4L345 187.1L345.3 185.9C345.7 184.3 346.3 182.8 347 181.5C347.7 180.1 348.7 178.9 349.6 177.9C350.6 176.9 351.6 176 352.7 175.4C353.7 174.8 354.8 174.4 355.8 174.1C356.8 173.8 357.6 173.7 358.3 173.7C359 173.6 359.5 173.7 359.9 173.7C360.3 173.7 360.5 173.7 360.5 173.7C360.5 173.7 360.3 173.7 360 173.8C359.6 173.9 359.1 174 358.5 174.2C357.9 174.4 357.1 174.7 356.3 175.1C355.5 175.5 354.6 176.1 353.8 176.8C353.4 177.1 352.9 177.5 352.6 178C352.2 178.4 351.8 178.9 351.4 179.4C350.7 180.4 350 181.5 349.4 182.7C348.8 183.9 348.4 185.3 348.1 186.6L347.9 187.6L347.8 188.6C347.7 189.2 347.7 190.2 347.7 190.8C347.7 192.2 347.8 193.7 348.2 195.1C348.5 196.5 348.9 197.8 349.5 199C350.1 200.2 350.8 201.3 351.5 202.3C351.9 202.8 352.3 203.3 352.7 203.7C353.1 204.1 353.5 204.5 353.9 204.9C354.8 205.6 355.6 206.1 356.4 206.5C357.2 206.9 358 207.2 358.6 207.4C359.2 207.6 359.8 207.7 360.1 207.8C360.3 207.9 360.5 207.9 360.5 207.9Z" fill="white"/>
<path d="M273.1 226.9C273.1 226.9 273.2 226.9 273.5 226.8C273.7 226.7 274.1 226.7 274.5 226.5C274.9 226.4 275.4 226.1 276 225.9C276.5 225.6 277.1 225.2 277.7 224.7C278.3 224.2 278.8 223.6 279.3 223C279.8 222.3 280.3 221.6 280.6 220.8C281 220 281.3 219.1 281.5 218.2C281.7 217.3 281.8 216.3 281.8 215.4C281.8 214.9 281.8 214.3 281.7 213.9C281.7 213.5 281.6 213 281.5 212.5C281.3 211.6 281 210.7 280.6 209.9C280.2 209.1 279.8 208.3 279.3 207.7C278.8 207 278.2 206.5 277.7 206C277.1 205.5 276.5 205.1 276 204.8C275.4 204.5 275 204.3 274.5 204.1C274.1 203.9 273.7 203.9 273.5 203.8C273.2 203.7 273.1 203.7 273.1 203.7C273.1 203.7 273.2 203.7 273.5 203.6C273.8 203.6 274.1 203.5 274.6 203.5C275.1 203.5 275.7 203.5 276.4 203.7C277.1 203.9 277.8 204.1 278.6 204.5C279.4 204.9 280.2 205.4 280.9 206.1C281.6 206.8 282.3 207.6 282.9 208.6C283.5 209.5 283.9 210.6 284.2 211.7C284.3 212.3 284.5 212.8 284.5 213.5C284.6 214.2 284.6 214.6 284.6 215.2C284.6 216.5 284.5 217.6 284.1 218.7C283.8 219.8 283.3 220.9 282.8 221.8C282.3 222.8 281.5 223.6 280.8 224.3C280.1 225 279.3 225.5 278.5 225.9C277.7 226.3 277 226.5 276.3 226.7C275.6 226.8 275 226.9 274.5 226.9C274 226.9 273.7 226.8 273.4 226.8C273.3 226.9 273.1 226.9 273.1 226.9Z" fill="white"/>
<path d="M358.1 198.6C358.1 198.6 358.4 198.4 359 198.2C359.3 198.1 359.6 197.9 359.9 197.7C360.2 197.5 360.5 197.2 360.9 196.9C361.3 196.6 361.5 196.1 361.8 195.8C361.9 195.6 362 195.3 362.2 195.1C362.3 194.9 362.5 194.6 362.6 194.4C362.7 194.1 362.8 193.9 362.9 193.6C363 193.3 363 193 363.1 192.8L363.2 192.4V192V191.6V191.4V191.3V191.2C363.2 191.2 363.2 191.4 363.2 191.3L363.1 190.3V189.8L363 189.4C362.9 189.1 362.9 188.9 362.8 188.6C362.7 188.3 362.6 188.1 362.5 187.8C362.4 187.5 362.3 187.3 362.2 187.1C362.1 186.9 362 186.6 361.8 186.4C361.5 186 361.2 185.5 360.9 185.3C360.6 185 360.2 184.6 359.9 184.5C359.6 184.3 359.3 184 359 184C358.5 183.8 358.1 183.6 358.1 183.6C358.1 183.6 358.4 183.5 359.1 183.4C359.4 183.3 359.8 183.4 360.3 183.5C360.5 183.6 360.8 183.6 361 183.7C361.3 183.8 361.5 183.9 361.8 184C362.4 184.2 362.8 184.7 363.4 185.1C363.9 185.6 364.4 186.1 364.7 186.8C364.9 187.1 365.1 187.5 365.2 187.8C365.4 188.2 365.5 188.6 365.6 189L365.8 189.6L365.9 190.1L366 191.1V191.2V191.3V191.5V191.8L365.9 192.4C365.9 192.8 365.8 193.2 365.7 193.6C365.6 194 365.5 194.4 365.3 194.7C365.1 195 364.9 195.4 364.8 195.7C364.5 196.4 363.9 196.9 363.4 197.4C362.8 197.8 362.4 198.3 361.8 198.5C361.5 198.6 361.3 198.7 361 198.8C360.8 198.9 360.5 198.9 360.2 199C359.7 199.1 359.3 199.1 359 199.1C358.5 198.7 358.1 198.6 358.1 198.6Z" fill="white"/>
<path d="M293.3 199.9C293.3 199.9 294.1 199.6 295.4 199.2C296.7 198.8 298.6 198.1 300.9 197.4C303.2 196.7 305.9 195.9 308.8 195C311.7 194.2 314.8 193.3 317.9 192.5C321 191.7 324.1 190.9 327.1 190.3C330 189.6 332.8 189 335.1 188.6C337.5 188.1 339.4 187.8 340.8 187.5C342.2 187.3 343 187.1 343 187.1C343 187.1 342.2 187.4 340.9 187.8C339.6 188.2 337.7 188.9 335.4 189.6C333.1 190.3 330.4 191.1 327.5 192C324.6 192.8 321.5 193.7 318.4 194.5C315.3 195.3 312.2 196.1 309.3 196.7C306.4 197.4 303.6 198 301.3 198.4C298.9 198.9 297 199.2 295.6 199.5C294.1 199.8 293.3 199.9 293.3 199.9Z" fill="white"/>
<path d="M296.9 218C296.9 218 297.6 217.6 298.8 217C300 216.4 301.8 215.5 303.9 214.6C306 213.6 308.5 212.5 311.2 211.4C313.9 210.3 316.8 209.1 319.6 208C322.5 206.9 325.4 205.8 328.1 204.8C330.8 203.8 333.4 202.9 335.6 202.2C337.8 201.5 339.7 200.9 341 200.5C342.3 200.1 343.1 199.9 343.1 199.9C343.1 199.9 342.4 200.3 341.2 200.9C340 201.5 338.2 202.4 336.1 203.3C334 204.3 331.5 205.4 328.8 206.5C326.1 207.6 323.2 208.8 320.4 209.9C317.5 211 314.6 212.1 311.9 213.1C309.2 214.1 306.6 215 304.4 215.7C302.2 216.4 300.3 217 299 217.4C297.7 217.8 296.9 218 296.9 218Z" fill="white"/>
<path d="M370.7 160.9C373.3 161.5 375.8 162.8 377.9 164.6C380 166.4 381.7 168.5 383.1 170.9C384.5 173.3 385.5 175.9 386.2 178.6C386.5 179.9 386.8 181.3 386.9 182.7C387 184.1 387.1 185.5 387 186.8C387 188.2 386.9 189.6 386.7 191C386.5 192.4 386.2 193.7 385.8 195.1C385.4 196.4 385 197.7 384.5 199L384.3 199.5L384.1 200C384 200.3 383.9 200.6 383.7 200.9C383.4 201.6 383.1 202.2 382.8 202.8C381.4 205.3 379.7 207.5 377.7 209.5C375.7 211.5 373.4 213.2 370.9 214.4H370.8C362.8 217.5 354.9 220.7 346.9 223.7C338.9 226.6 330.8 229.5 322.7 232.3L310.5 236.3C306.4 237.6 302.4 239 298.3 240.3C290.1 242.8 282 245.3 273.8 247.7L322 230.2L334 225.6L346 221.1L369.8 211.6H369.7C374.2 209.3 378 205.6 380.4 201.1C380.7 200.5 381 200 381.2 199.4C381.3 199.1 381.5 198.8 381.6 198.5L381.8 198.1L382 197.6C382.5 196.4 382.9 195.1 383.3 193.9C383.7 192.7 384 191.4 384.2 190.1C384.4 188.8 384.6 187.6 384.6 186.3C384.7 185 384.7 183.7 384.6 182.4C384.5 181.1 384.4 179.8 384.1 178.6C383.6 176.1 382.8 173.6 381.7 171.2C380.6 168.9 379.1 166.6 377.2 164.8C375.5 163.3 373.3 161.8 370.7 160.9Z" fill="white"/>
<path d="M378.9 172.5C378.9 172.5 379.2 172.9 379.6 173.6C379.8 173.9 380.1 174.4 380.3 174.9C380.4 175.2 380.6 175.4 380.7 175.7C380.8 176 380.9 176.3 381.1 176.7C381.4 177.4 381.6 178.1 381.8 178.9C382 179.7 382.2 180.6 382.3 181.5C382.4 182.4 382.5 183.3 382.5 184.3C382.5 185.3 382.4 186.2 382.4 187.2C382.3 188.2 382.2 189.1 382 190C381.8 190.9 381.6 191.8 381.3 192.7C380.8 194.4 380.1 196 379.5 197.3C379.2 197.9 378.9 198.5 378.5 199C378.2 199.5 377.9 199.9 377.7 200.3C377.2 201 376.9 201.4 376.9 201.4C376.9 201.4 377.1 201 377.4 200.2C377.8 199.5 378.2 198.4 378.7 197C379 196.3 379.2 195.6 379.4 194.8C379.6 194 379.8 193.2 380.1 192.4C380.3 191.5 380.5 190.7 380.6 189.8C380.8 188.9 380.9 188 381 187.1C381.1 186.2 381.2 185.3 381.2 184.3C381.2 183.4 381.2 182.5 381.2 181.6C381.1 180.7 381.1 179.9 380.9 179.1C380.8 178.3 380.7 177.6 380.5 176.9C380.3 176.2 380.2 175.6 380 175.1C379.8 174.6 379.7 174.1 379.5 173.7C379 172.9 378.9 172.5 378.9 172.5Z" fill="white"/>
<path d="M273.7 239.2C273.7 239.2 273.4 239.2 273 239.2C272.5 239.2 271.8 239.3 270.9 239.1C270.4 239.1 269.9 239 269.4 238.8C268.9 238.7 268.3 238.5 267.7 238.3C267.1 238.1 266.4 237.8 265.8 237.4C265.5 237.2 265.1 237 264.8 236.8C264.5 236.6 264.2 236.3 263.8 236.1C263.1 235.7 262.6 235 261.9 234.5C261.3 233.9 260.7 233.2 260.1 232.5C259 231 257.9 229.4 257.1 227.5C256.3 225.7 255.6 223.7 255.2 221.6C254.7 219.5 254.6 217.4 254.5 215.2C254.6 214.2 254.5 213.2 254.7 212.1C254.8 211 255 209.9 255.2 208.9C255.6 206.8 256.3 204.9 257.1 203C257.9 201.2 258.9 199.5 260.1 198C260.7 197.3 261.3 196.6 261.9 196C262.6 195.4 263.1 194.8 263.8 194.4C264.1 194.2 264.4 193.9 264.7 193.7C265 193.5 265.4 193.3 265.7 193.1C266.3 192.7 267 192.5 267.6 192.2C268.2 191.9 268.8 191.8 269.3 191.6C269.8 191.4 270.3 191.4 270.8 191.3C271.7 191.1 272.4 191.2 272.9 191.2C273.4 191.2 273.6 191.2 273.6 191.2C273.6 191.2 273.3 191.2 272.9 191.3C272.4 191.4 271.7 191.5 270.9 191.8C270.5 191.9 270 192.1 269.5 192.3C269 192.5 268.5 192.7 268 193.1C267.5 193.4 266.9 193.7 266.4 194.2C266.1 194.4 265.9 194.6 265.6 194.8C265.3 195 265.1 195.3 264.8 195.5C263.7 196.5 262.7 197.8 261.8 199.2C260.9 200.6 260.1 202.2 259.4 203.9C258.7 205.6 258.2 207.5 257.9 209.3C257.7 210.3 257.6 211.2 257.5 212.1C257.4 213 257.4 214.1 257.4 215.1C257.4 217 257.5 219 257.9 220.9C258.2 222.8 258.8 224.6 259.4 226.4C260.1 228.1 260.9 229.7 261.8 231.1C262.7 232.5 263.7 233.7 264.8 234.7C265.1 235 265.3 235.2 265.6 235.4C265.9 235.6 266.2 235.8 266.4 236C266.9 236.4 267.5 236.8 268 237C268.5 237.3 269 237.5 269.5 237.7C270 237.9 270.4 238.1 270.9 238.2C271.7 238.5 272.4 238.6 272.9 238.7C273.5 239.1 273.7 239.2 273.7 239.2Z" fill="white"/>
<path d="M296.5 208.4C296.5 208.4 299.3 207.1 303.6 205.5C305.7 204.7 308.3 203.8 311 202.8C313.7 201.8 316.6 200.9 319.5 200C322.4 199.1 325.3 198.2 328.1 197.4C330.8 196.6 333.4 195.9 335.7 195.3C340.1 194.2 343.2 193.6 343.2 193.6C343.2 193.6 340.4 194.9 336.1 196.5C334 197.3 331.4 198.2 328.7 199.2C326 200.2 323.1 201.1 320.2 202C317.3 202.9 314.4 203.8 311.6 204.6C308.8 205.4 306.3 206.1 304 206.7C299.5 207.8 296.5 208.4 296.5 208.4Z" fill="white"/>
<path d="M326.2 29.8999C326.2 29.8999 326.3 31.3999 326.3 34.0999C326.4 36.6999 326.5 40.4999 326.6 45.0999C326.7 49.5999 326.8 54.8999 326.8 60.5999C326.8 66.2999 326.9 72.2999 326.9 78.3999C326.9 84.3999 326.8 90.4999 326.8 96.0999C326.8 101.8 326.6 107 326.6 111.6C326.5 116.1 326.4 119.9 326.3 122.6C326.2 125.2 326.2 126.8 326.2 126.8C326.2 126.8 326.2 125.3 326.1 122.6C326 120 325.9 116.2 325.8 111.6C325.7 107.1 325.6 101.8 325.6 96.0999C325.6 90.3999 325.5 84.3999 325.5 78.3999C325.5 72.3999 325.6 66.2999 325.6 60.5999C325.6 54.8999 325.8 49.5999 325.8 45.0999C325.9 40.5999 326 36.7999 326.1 34.0999C326.2 31.4999 326.2 29.8999 326.2 29.8999Z" fill="white"/>
<path d="M348.7 52.3C348.7 52.3 348.8 52.7 348.8 53.5C348.9 54.2 349 55.3 349.1 56.6C349.3 59.1 349.4 62.5001 349.4 65.9001C349.4 69.3001 349.3 72.6 349.1 75.2C349 76.5 348.9 77.5001 348.8 78.3001C348.7 79.0001 348.7 79.5 348.7 79.5C348.7 79.5 348.6 79.1001 348.6 78.3001C348.5 77.6001 348.4 76.5 348.3 75.2C348.1 72.7 348 69.3001 348 65.9001C348 62.5001 348.1 59.2 348.3 56.6C348.4 55.3 348.5 54.3 348.6 53.5C348.7 52.7 348.7 52.3 348.7 52.3Z" fill="#25262A"/>
<path d="M318 52.3C318 52.3 318.1 52.7 318.1 53.5C318.2 54.2 318.3 55.3 318.4 56.6C318.6 59.1 318.7 62.5001 318.7 65.9001C318.7 69.3001 318.6 72.6 318.4 75.2C318.3 76.5 318.2 77.5001 318.1 78.3001C318 79.0001 318 79.5 318 79.5C318 79.5 317.9 79.1001 317.9 78.3001C317.8 77.6001 317.7 76.5 317.6 75.2C317.4 72.7 317.3 69.3001 317.3 65.9001C317.3 62.5001 317.4 59.2 317.6 56.6C317.7 55.3 317.8 54.3 317.9 53.5C317.9 52.7 318 52.3 318 52.3Z" fill="#25262A"/>
<path d="M301 90.1001C301 90.1001 301.2 91.8001 301.3 94.3001C301.3 95.6001 301.4 97.0001 301.5 98.6001C301.5 100.2 301.5 101.9 301.6 103.5C301.6 105.2 301.6 106.9 301.5 108.4C301.5 110 301.4 111.5 301.3 112.7C301.2 115.2 301 116.9 301 116.9C301 116.9 300.8 115.2 300.7 112.7C300.7 111.4 300.6 110 300.5 108.4C300.5 106.8 300.5 105.1 300.4 103.5C300.4 101.8 300.4 100.1 300.5 98.6001C300.5 97.0001 300.6 95.5001 300.7 94.3001C300.8 91.8001 301 90.1001 301 90.1001Z" fill="white"/>
<path d="M283.3 48.3C283.3 48.3 283.4 48.7 283.4 49.5C283.5 50.2 283.6 51.3 283.7 52.6C283.9 55.1 284 58.5001 284 61.9001C284 65.3001 283.9 68.6 283.7 71.2C283.6 72.5 283.5 73.5 283.4 74.2C283.3 74.9 283.3 75.4001 283.3 75.4001C283.3 75.4001 283.2 75 283.2 74.2C283.1 73.5 283 72.4 282.9 71.2C282.7 68.7 282.6 65.3001 282.6 61.9001C282.6 58.5001 282.7 55.2 282.9 52.6C283 51.3 283.1 50.3 283.2 49.5C283.2 48.7 283.3 48.3 283.3 48.3Z" fill="#25262A"/>
<path d="M297 153.5L339.1 157.9L296.8 156.3L297 153.5Z" fill="#25262A"/>
<path d="M275.3 157.1L317 161.7L275 159.9L275.3 157.1Z" fill="#25262A"/>
<path d="M250.9 161.3L294.8 166.1L250.7 164.2L250.9 161.3Z" fill="#25262A"/>
<path d="M229.7 166.1L273 170.6L229.5 168.9L229.7 166.1Z" fill="#25262A"/>
<path d="M209.3 208.6L234.3 211.7L209.1 211.4L209.3 208.6Z" fill="#25262A"/>
<path d="M207.8 222.9L235.7 226L207.7 225.7L207.8 222.9Z" fill="#25262A"/>
<path d="M211.7 236.9L242.8 240.9L211.5 239.7L211.7 236.9Z" fill="#25262A"/>
<path d="M210.4 174.6L252.8 179L210.2 177.4L210.4 174.6Z" fill="#25262A"/>
<path d="M209.4 189.1L239 193.4L209.1 191.9L209.4 189.1Z" fill="#25262A"/>
<path d="M25.4995 147.5L46.7995 142.6V149.7L25.4995 147.5Z" fill="#25262A"/>
<path d="M25.8996 148.9C32.9996 147.3 40.0996 145.6 47.1996 144C46.5996 143.6 45.9996 143.1 45.3996 142.6C45.3996 145 45.3996 147.3 45.3996 149.7C45.8996 149.2 46.2996 148.8 46.7996 148.3C39.6996 147.6 32.5996 146.9 25.4996 146.1C23.6996 145.9 23.6996 148.7 25.4996 148.9C32.5996 149.6 39.6996 150.3 46.7996 151.1C47.5996 151.2 48.1996 150.4 48.1996 149.7C48.1996 147.3 48.1996 145 48.1996 142.6C48.1996 141.7 47.2996 141 46.3996 141.2C39.2996 142.8 32.1996 144.5 25.0996 146.1C23.2996 146.6 24.0996 149.3 25.8996 148.9Z" fill="#25262A"/>
<path d="M215.6 159.8V271.5L165.6 306C215.6 255.4 202.4 165.5 202.4 165.5L215.6 159.8Z" fill="#25262A"/>
<path d="M214.1 159.8C214.1 194.6 214.1 229.4 214.1 264.2C214.1 266.1 214.1 268 214.1 269.9C214.1 270.4 214.1 270.8 214.1 271.3C214.1 272.3 215.4 270 214.6 270.5C209.8 273.8 205.1 277.1 200.3 280.4C188.5 288.5 176.7 296.7 164.8 304.8C165.4 305.5 165.9 306.3 166.5 307C187.7 285.3 198.5 256 202.9 226.4C205.7 207.2 206.2 187.4 204.1 168.1C204 167.1 203.9 166.1 203.7 165.1C203.5 165.6 203.3 166.2 203.1 166.7C207.5 164.8 211.9 162.9 216.3 161C218 160.3 216.5 157.8 214.9 158.6C210.5 160.5 206.1 162.4 201.7 164.3C201.1 164.6 201 165.3 201.1 165.9C203.1 179.5 203 195.8 202 210.2C199.9 239.6 192.1 269.6 174.4 293.6C171.4 297.6 168.1 301.4 164.6 305C163.5 306.1 165 308.2 166.3 307.2C180.8 297.2 195.3 287.2 209.9 277.2C212 275.8 214.1 274.3 216.2 272.9C217.3 272.2 217 271.1 217 269.9C217 263.2 217 256.5 217 249.8C217 219.8 217 189.8 217 159.8C217 157.9 214.1 157.9 214.1 159.8Z" fill="#25262A"/>
<path d="M165.6 306L1.3999 237C1.3999 237 33.8999 221.7 25.4999 147.5L202.4 165.4C202.4 165.4 215.6 255.3 165.6 306Z" fill="white"/>
<path d="M165.9 304.6C136.2 292.1 106.4 279.6 76.6998 267.1C51.6998 256.6 26.7998 246.1 1.79977 235.6C1.89977 236.5 1.99977 237.3 2.09977 238.2C8.99977 234.9 14.2998 227.2 17.7998 220.8C29.7998 198.9 29.4998 171.6 26.7998 147.5C26.2998 148 25.8998 148.4 25.3998 148.9C57.5998 152.2 89.7998 155.4 121.9 158.7C148.7 161.4 175.5 164.1 202.3 166.8C201.8 166.5 201.4 166.1 200.9 165.8C202.9 179.4 202.8 195.7 201.8 210.1C199.7 239.5 191.9 269.5 174.2 293.5C171.2 297.5 167.9 301.3 164.4 304.9C163.1 306.2 165.1 308.2 166.4 306.9C187.6 285.2 198.4 255.9 202.8 226.3C205.6 207.1 206.1 187.3 204 168C203.9 167 203.8 166 203.6 165C203.5 164.3 202.8 164 202.2 164C170 160.7 137.8 157.5 105.7 154.2C78.8998 151.5 52.0998 148.8 25.2998 146.1C24.5998 146 23.7998 146.8 23.8998 147.5C26.4998 171.2 26.7998 197.7 15.1998 219.3C11.8998 225.4 6.99977 232.6 0.499772 235.7C-0.700228 236.3 -0.200228 237.9 0.799772 238.3C30.4998 250.8 60.2998 263.3 89.9998 275.8C115 286.3 139.9 296.8 164.9 307.3C166.9 308 167.6 305.3 165.9 304.6Z" fill="#25262A"/>
<path d="M26.5996 154.9L141.9 172.2L26.0996 159.1L26.5996 154.9Z" fill="#25262A"/>
<path d="M26.7 163.9C26.7 163.9 46.3 167.7 65.9 171.6C85.6 175 105.3 178.4 105.3 178.4C105.3 178.4 85.4 176 65.6 173.7C45.8 170.9 26 168.1 26 168.1L26.7 163.9Z" fill="#25262A"/>
<path d="M184.1 281.9L99.1997 254.9L185.3 277.8L184.1 281.9Z" fill="#25262A"/>
<path d="M177.8 293.1L53.5 246.4L179.2 289.1L177.8 293.1Z" fill="#25262A"/>
<path d="M217.8 61.8H202.7V83.5H217.8V61.8Z" fill="#25262A"/>
<path d="M206.1 65.1L206 34.1C206 33.9 205.7 33.4 205.5 33.3L198.3 28.7001V18.3L210.1 26.3C212.7 27.9 214.4 31.2001 214.5 34.2001L214.6 65.2L206.1 65.1Z" fill="#25262A"/>
<path d="M200.9 23.5001C200.9 20.6001 199.6 18.8001 198.3 18.2001C196.8 17.6001 195.7 20.6001 195.7 23.5001C195.7 26.4001 196.6 28.2001 198.3 28.8001C199.7 29.2001 200.9 26.4001 200.9 23.5001Z" fill="#25262A"/>
<path d="M215.1 61.7999H210.3L215.1 61.2V61.7999Z" fill="white"/>
<path d="M218.1 82.5H208.5L218.1 81.7V82.5Z" fill="white"/>
<path d="M199.1 19.3C199.1 19.3 199.2 19.4 199.4 19.5C199.6 19.7 199.9 20 200.1 20.5C200.3 20.9 200.5 21.5001 200.6 22.1C200.7 22.7 200.7 23.3 200.7 24C200.7 24.6 200.6 25.3 200.4 25.8C200.3 26.4 200 26.9 199.8 27.3C199.6 27.7 199.3 28.0001 199.1 28.2001C198.9 28.4001 198.7 28.4 198.7 28.4C198.7 28.4 198.8 28.3 199 28.1C199.2 27.9001 199.3 27.5 199.5 27.1C199.8 26.3 199.9 25.1 200 23.9C200 22.7 200 21.5001 199.7 20.6C199.6 20.2 199.5 19.8 199.3 19.6C199.2 19.5 199.1 19.3 199.1 19.3Z" fill="white"/>
</g>
<defs>
<clipPath id="clip0_221_60">
<rect width="392" height="307.4" fill="white"/>
</clipPath>
</defs>
</svg>
