<svg width="100" height="100" viewBox="0 0 100 100" fill="none" xmlns="http://www.w3.org/2000/svg">
<path d="M10.0002 91.6667C10.9168 91.6667 11.6668 90.9167 11.6668 90V72.4334H21.6668H24.5002V90C24.5002 90.9167 25.2502 91.6667 26.1668 91.6667C27.0835 91.6667 27.8335 90.9167 27.8335 90V72.4334H29.0002L33.9168 87.4834C34.6335 89.65 36.6335 91.05 38.8168 91.05C39.2002 91.05 39.5668 91.0167 39.9502 90.9167C41.3168 90.6167 42.4835 89.8 43.2168 88.6C43.9502 87.4167 44.1835 86.0167 43.8668 84.65L38.8502 63.7667C38.7002 63.1667 38.2502 62.7 37.6502 62.5334L30.6002 60.7334V56.5834L31.3335 57.05C31.6002 57.2167 31.9168 57.3 32.2168 57.3H40.8668C43.3502 57.3 45.3668 55.2834 45.3668 52.8C45.3668 50.3167 43.3502 48.3 40.8668 48.3H34.6668L27.7835 42.4L27.7668 42.3834C26.2835 41.1167 24.4002 40.4167 22.4502 40.4167C17.9502 40.4167 14.3002 44.0834 14.3002 48.5667V65.0167C14.3002 66.5167 14.7502 67.9 15.5168 69.0667H11.6668V47.6834C11.6668 46.7667 10.9168 46.0167 10.0002 46.0167C9.0835 46.0167 8.3335 46.7667 8.3335 47.6834V90C8.3335 90.9167 9.0835 91.6667 10.0002 91.6667V91.6667ZM17.6335 48.6C17.6335 45.9334 19.8002 43.7834 22.4502 43.7834C23.6002 43.7834 24.7168 44.2 25.5835 44.9334C25.5835 44.9334 25.5835 44.95 25.6002 44.95L32.9668 51.2667C33.2668 51.5334 33.6502 51.6667 34.0502 51.6667H40.9002C41.5502 51.6667 42.0668 52.1834 42.0668 52.8334C42.0668 53.4834 41.5502 54 40.9002 54H32.7168L25.0335 49.15C24.2502 48.65 23.2335 48.8834 22.7335 49.6667C22.2335 50.45 22.4668 51.4667 23.2502 51.9667L27.2668 54.5V62.05C27.2668 62.8167 27.7835 63.4834 28.5168 63.6667L35.8502 65.55L40.6335 85.4667C40.7502 85.95 40.6668 86.45 40.4002 86.8667C40.1335 87.2834 39.7168 87.5834 39.2335 87.6834C38.3002 87.9 37.3835 87.3667 37.0835 86.45L31.8002 70.25C31.5835 69.5667 30.9335 69.1 30.2168 69.1H26.1668H21.6668C19.4335 69.1 17.6168 67.2834 17.6168 65.05V48.6H17.6335Z" fill="#FF5E28"/>
<path d="M24.1501 38.25C28.3667 38.25 31.8167 34.8167 31.8167 30.5834C31.8167 26.35 28.3834 22.9167 24.1501 22.9167C19.9167 22.9167 16.4834 26.35 16.4834 30.5834C16.4834 34.8167 19.9334 38.25 24.1501 38.25V38.25ZM24.1501 26.2667C26.5334 26.2667 28.4834 28.2 28.4834 30.6C28.4834 33 26.5501 34.9334 24.1501 34.9334C21.7501 34.9334 19.8167 33 19.8167 30.6C19.8167 28.2 21.7667 26.2667 24.1501 26.2667V26.2667Z" fill="#FF5E28"/>
<path d="M90.0001 46.0167C89.0834 46.0167 88.3334 46.7667 88.3334 47.6833V69.1H84.4834C85.2501 67.9333 85.7001 66.55 85.7001 65.05V48.6C85.7001 44.1 82.0334 40.45 77.5501 40.45C75.6001 40.45 73.7168 41.15 72.2334 42.4167L72.2168 42.4333L65.3334 48.3333H59.1001C56.6168 48.3333 54.6001 50.35 54.6001 52.8333C54.6001 55.3167 56.6168 57.3334 59.1001 57.3334H67.7501C68.0668 57.3334 68.3668 57.25 68.6334 57.0833L69.3668 56.6167V60.7667L62.3168 62.5667C61.7168 62.7167 61.2501 63.2 61.1168 63.8L56.1168 84.6667C55.7834 86.0334 56.0168 87.4334 56.7668 88.6167C57.5168 89.8 58.6668 90.6334 60.0334 90.9334C60.4168 91.0167 60.8001 91.0667 61.1668 91.0667C63.3668 91.0667 65.3668 89.6667 66.0668 87.5L70.9834 72.45H72.1501V90C72.1501 90.9167 72.9001 91.6667 73.8168 91.6667C74.7334 91.6667 75.4834 90.9167 75.4834 90V72.4333H78.3334H88.3334V90C88.3334 90.9167 89.0834 91.6667 90.0001 91.6667C90.9168 91.6667 91.6668 90.9167 91.6668 90V47.6833C91.6668 46.7667 90.9168 46.0167 90.0001 46.0167V46.0167ZM82.3668 65.0667C82.3668 67.3 80.5501 69.1167 78.3168 69.1167H73.8168H69.7668C69.0501 69.1167 68.4001 69.5834 68.1834 70.2667L62.9001 86.4667C62.6001 87.3667 61.6834 87.9 60.7501 87.7C60.2668 87.6 59.8501 87.3 59.5834 86.8834C59.3168 86.4667 59.2334 85.9667 59.3501 85.4834L64.1334 65.5667L71.4668 63.6833C72.2001 63.5 72.7168 62.8334 72.7168 62.0667V54.5L76.7334 51.9667C77.5168 51.4833 77.7501 50.45 77.2501 49.6667C76.7668 48.8833 75.7334 48.65 74.9501 49.15L67.2668 54H59.0834C58.4334 54 57.9168 53.4833 57.9168 52.8333C57.9168 52.1833 58.4334 51.6667 59.0834 51.6667H65.9334C66.3334 51.6667 66.7168 51.5333 67.0168 51.2667L74.3834 44.95C74.3834 44.95 74.3834 44.9333 74.4001 44.9333C75.2668 44.1833 76.3834 43.7833 77.5334 43.7833C80.2001 43.7833 82.3501 45.95 82.3501 48.6V65.0667H82.3668Z" fill="#FF5E28"/>
<path d="M68.1836 30.5834C68.1836 34.8 71.6169 38.25 75.8503 38.25C80.0836 38.25 83.5169 34.8167 83.5169 30.5834C83.5169 26.35 80.0836 22.9167 75.8503 22.9167C71.6169 22.9167 68.1836 26.3667 68.1836 30.5834ZM80.1669 30.5834C80.1669 32.9667 78.2336 34.9167 75.8336 34.9167C73.4336 34.9167 71.5003 32.9834 71.5003 30.5834C71.5003 28.1834 73.4336 26.25 75.8336 26.25C78.2336 26.25 80.1669 28.2 80.1669 30.5834Z" fill="#FF5E28"/>
<path d="M56.3334 36.6167V36.4167C56.3334 34.7333 57.15 33.0833 58.5667 31.8833C61.6 29.35 63.3334 25.6167 63.3334 21.6667C63.3334 17.8833 61.7167 14.25 58.8834 11.7333C56.0667 9.2 52.2667 8 48.4667 8.41667C42.5 9.08334 37.5834 13.8667 36.7667 19.7833C36.1334 24.4333 37.8834 28.9667 41.4667 31.9333C42.85 33.0667 43.6334 34.7 43.6334 36.4V36.6C43.6334 37.5167 44.3834 38.2667 45.3 38.2667H54.65C55.6 38.2833 56.3334 37.5333 56.3334 36.6167V36.6167ZM53.1334 34.95H46.8667C46.5 32.8 45.3667 30.8333 43.6167 29.3833C40.9334 27.15 39.6 23.7333 40.0834 20.25C40.7 15.8167 44.3834 12.2333 48.85 11.7333C51.75 11.4 54.5167 12.3 56.6667 14.2167C58.7834 16.1167 60 18.8333 60 21.6833C60 24.65 58.7001 27.4333 56.4334 29.35C54.6667 30.8167 53.5 32.8167 53.1334 34.95V34.95Z" fill="#FF5E28"/>
<path d="M55.5503 42.4833C55.5503 41.5667 54.8003 40.8167 53.8836 40.8167H46.1003C45.1836 40.8167 44.4336 41.5667 44.4336 42.4833C44.4336 43.4 45.1836 44.15 46.1003 44.15H53.8836C54.8169 44.15 55.5503 43.4 55.5503 42.4833Z" fill="#FF5E28"/>
</svg>
