<svg width="100" height="100" viewBox="0 0 100 100" fill="none" xmlns="http://www.w3.org/2000/svg">
<path d="M27.969 75.8641C27.8386 75.6032 27.6378 75.3839 27.3893 75.2312C27.1407 75.0785 26.8544 74.9984 26.5627 75H7.81274C7.52238 74.9999 7.23772 75.0807 6.99071 75.2333C6.74369 75.3859 6.54409 75.6043 6.4143 75.8641L3.2893 82.1141C3.17024 82.3524 3.11406 82.6171 3.12611 82.8832C3.13816 83.1493 3.21804 83.4079 3.35816 83.6344C3.49828 83.861 3.69398 84.0479 3.92669 84.1776C4.15939 84.3072 4.42137 84.3751 4.68774 84.375H6.25024V95.3125C6.25024 95.7269 6.41486 96.1244 6.70789 96.4174C7.00091 96.7104 7.39834 96.875 7.81274 96.875H26.5627C26.9771 96.875 27.3746 96.7104 27.6676 96.4174C27.9606 96.1244 28.1252 95.7269 28.1252 95.3125V84.375H29.6877C29.9541 84.3751 30.2161 84.3072 30.4488 84.1776C30.6815 84.0479 30.8772 83.861 31.0173 83.6344C31.1574 83.4079 31.2373 83.1493 31.2494 82.8832C31.2614 82.6171 31.2052 82.3524 31.0862 82.1141L27.969 75.8641ZM8.77836 78.125H25.5971L27.1596 81.25H7.21586L8.77836 78.125ZM18.7502 93.75H15.6252V90.625H18.7502V93.75ZM25.0002 93.75H21.8752V89.0625C21.8752 88.6481 21.7106 88.2507 21.4176 87.9577C21.1246 87.6646 20.7271 87.5 20.3127 87.5H14.0627C13.6483 87.5 13.2509 87.6646 12.9579 87.9577C12.6649 88.2507 12.5002 88.6481 12.5002 89.0625V93.75H9.37524V84.375H25.0002V93.75Z" fill="#FF5E28"/>
<path d="M63.8908 82.1094L60.7658 75.8594C60.6393 75.5991 60.4414 75.3801 60.1952 75.2279C59.949 75.0757 59.6646 74.9967 59.3752 75H40.6252C40.3357 74.9967 40.0513 75.0757 39.8051 75.2279C39.5589 75.3801 39.361 75.5991 39.2345 75.8594L36.1095 82.1094C35.9897 82.3473 35.9326 82.6118 35.9438 82.8779C35.9549 83.1441 36.0339 83.4029 36.1732 83.6299C36.3126 83.8569 36.5076 84.0445 36.7398 84.1749C36.9721 84.3054 37.2338 84.3742 37.5002 84.375H39.0627V95.3125C39.0627 95.7269 39.2273 96.1244 39.5203 96.4174C39.8133 96.7104 40.2108 96.875 40.6252 96.875H59.3752C59.7896 96.875 60.187 96.7104 60.48 96.4174C60.773 96.1244 60.9377 95.7269 60.9377 95.3125V84.375H62.5001C62.7665 84.3742 63.0282 84.3054 63.2605 84.1749C63.4927 84.0445 63.6877 83.8569 63.8271 83.6299C63.9664 83.4029 64.0454 83.1441 64.0566 82.8779C64.0677 82.6118 64.0106 82.3473 63.8908 82.1094ZM51.5627 93.75H48.4377V90.625H51.5627V93.75ZM57.8127 93.75H54.6877V89.0625C54.6877 88.6481 54.523 88.2507 54.23 87.9577C53.937 87.6647 53.5396 87.5 53.1252 87.5H46.8752C46.4608 87.5 46.0633 87.6647 45.7703 87.9577C45.4773 88.2507 45.3127 88.6481 45.3127 89.0625V93.75H42.1877V84.375H57.8127V93.75ZM40.0314 81.25L41.5939 78.125H58.4064L59.9689 81.25H40.0314Z" fill="#FF5E28"/>
<path d="M82.8125 56.25H62.2187C61.8944 55.3395 61.2974 54.551 60.509 53.9918C59.7206 53.4327 58.7791 53.13 57.8125 53.125H51.5625V45.3125H64.0625C64.4769 45.3125 64.8743 45.1479 65.1674 44.8549C65.4604 44.5618 65.625 44.1644 65.625 43.75V35.9688C65.6201 34.2733 65.0664 32.6249 64.0469 31.2702C63.0273 29.9155 61.5966 28.9272 59.9688 28.4531L54.6875 26.9375V24.9531C55.6558 24.2342 56.4426 23.2989 56.9852 22.2219C57.5277 21.1449 57.8111 19.956 57.8125 18.75V17.1875H60.9375V14.0625H59.2344C59.001 12.6992 58.4697 11.4043 57.6783 10.2699C56.887 9.13555 55.8551 8.18977 54.6562 7.50001C54.5811 6.31617 54.0578 5.2054 53.1929 4.39362C52.3279 3.58184 51.1862 3.13 50 3.13C48.8138 3.13 47.6721 3.58184 46.8071 4.39362C45.9422 5.2054 45.4189 6.31617 45.3438 7.50001C44.1449 8.18977 43.113 9.13555 42.3217 10.2699C41.5303 11.4043 40.999 12.6992 40.7656 14.0625H39.0625V17.1875H42.1875V18.75C42.1889 19.956 42.4723 21.1449 43.0148 22.2219C43.5574 23.2989 44.3442 24.2342 45.3125 24.9531V26.9375L40.0469 28.4531C38.4157 28.9237 36.9811 29.9106 35.9584 31.2657C34.9358 32.6208 34.3801 34.2711 34.375 35.9688V43.75C34.375 44.1644 34.5396 44.5618 34.8326 44.8549C35.1257 45.1479 35.5231 45.3125 35.9375 45.3125H48.4375V53.125H42.1875C41.2209 53.13 40.2794 53.4327 39.491 53.9918C38.7026 54.551 38.1056 55.3395 37.7813 56.25H17.1875C16.7731 56.25 16.3757 56.4146 16.0826 56.7077C15.7896 57.0007 15.625 57.3981 15.625 57.8125V71.875H18.75V59.375H37.7813C38.1056 60.2856 38.7026 61.0741 39.491 61.6332C40.2794 62.1924 41.2209 62.495 42.1875 62.5H48.4375V71.875H51.5625V62.5H57.8125C58.7791 62.495 59.7206 62.1924 60.509 61.6332C61.2974 61.0741 61.8944 60.2856 62.2187 59.375H81.25V71.875H84.375V57.8125C84.375 57.3981 84.2104 57.0007 83.9174 56.7077C83.6243 56.4146 83.2269 56.25 82.8125 56.25ZM54.6875 11.5C55.3333 12.2348 55.794 13.1134 56.0313 14.0625H54.6875V11.5ZM48.4375 7.81251C48.4375 7.39811 48.6021 7.00068 48.8951 6.70765C49.1882 6.41463 49.5856 6.25001 50 6.25001C50.4144 6.25001 50.8118 6.41463 51.1049 6.70765C51.3979 7.00068 51.5625 7.39811 51.5625 7.81251V14.0625H48.4375V7.81251ZM54.6875 17.1875V18.75C54.6875 19.9932 54.1936 21.1855 53.3146 22.0646C52.4355 22.9437 51.2432 23.4375 50 23.4375C48.7568 23.4375 47.5645 22.9437 46.6854 22.0646C45.8064 21.1855 45.3125 19.9932 45.3125 18.75V17.1875H54.6875ZM54.6875 30.2031V32.375L52.5312 31.8281L53.7969 29.9375L54.6875 30.2031ZM51.5625 26.4063V27.6563L50 30L48.4375 27.6563V26.4063C49.4688 26.6146 50.5312 26.6146 51.5625 26.4063ZM43.9687 14.0625C44.206 13.1134 44.6667 12.2348 45.3125 11.5V14.0625H43.9687ZM45.3125 30.2031L46.2031 29.9375L47.4687 31.8281L45.3125 32.375V30.2031ZM37.5 42.1875V35.9688C37.5009 34.9484 37.8337 33.956 38.4481 33.1414C39.0626 32.3268 39.9254 31.7343 40.9063 31.4531L42.1875 31.0938V34.375C42.1854 34.5808 42.2244 34.7849 42.3022 34.9754C42.38 35.1659 42.495 35.339 42.6405 35.4845C42.786 35.63 42.9591 35.745 43.1496 35.8228C43.3401 35.9006 43.5442 35.9396 43.75 35.9375C43.8765 35.9373 44.0024 35.9216 44.125 35.8906L50 34.4219L55.875 35.8906C55.9976 35.9216 56.1235 35.9373 56.25 35.9375C56.4558 35.9396 56.6599 35.9006 56.8504 35.8228C57.0409 35.745 57.214 35.63 57.3595 35.4845C57.505 35.339 57.62 35.1659 57.6978 34.9754C57.7756 34.7849 57.8146 34.5808 57.8125 34.375V31.0938L59.1094 31.4531C60.0869 31.7378 60.9458 32.3317 61.5572 33.1459C62.1685 33.9601 62.4994 34.9506 62.5 35.9688V42.1875H37.5ZM57.8125 59.375H42.1875C41.7731 59.375 41.3757 59.2104 41.0826 58.9174C40.7896 58.6243 40.625 58.2269 40.625 57.8125C40.625 57.3981 40.7896 57.0007 41.0826 56.7077C41.3757 56.4146 41.7731 56.25 42.1875 56.25H57.8125C58.2269 56.25 58.6243 56.4146 58.9174 56.7077C59.2104 57.0007 59.375 57.3981 59.375 57.8125C59.375 58.2269 59.2104 58.6243 58.9174 58.9174C58.6243 59.2104 58.2269 59.375 57.8125 59.375Z" fill="#FF5E28"/>
<path d="M96.719 82.1141L93.594 75.8641C93.4636 75.6032 93.2628 75.3839 93.0143 75.2312C92.7658 75.0785 92.4794 74.9984 92.1878 75H73.4378C73.1461 74.9984 72.8598 75.0785 72.6112 75.2312C72.3627 75.3839 72.1619 75.6032 72.0315 75.8641L68.9065 82.1141C68.7871 82.353 68.731 82.6184 68.7434 82.8852C68.7558 83.1519 68.8364 83.411 68.9774 83.6378C69.1184 83.8645 69.3152 84.0514 69.549 84.1804C69.7828 84.3095 70.0457 84.3765 70.3128 84.375H71.8753V95.3125C71.8753 95.7269 72.0399 96.1244 72.3329 96.4174C72.6259 96.7104 73.0234 96.875 73.4378 96.875H92.1878C92.6022 96.875 92.9996 96.7104 93.2926 96.4174C93.5856 96.1244 93.7503 95.7269 93.7503 95.3125V84.375H95.3128C95.5798 84.3765 95.8427 84.3095 96.0765 84.1804C96.3103 84.0514 96.5071 83.8645 96.6481 83.6378C96.7891 83.411 96.8697 83.1519 96.8821 82.8852C96.8945 82.6184 96.8384 82.353 96.719 82.1141ZM74.4034 78.125H91.2221L92.7846 81.25H72.8409L74.4034 78.125ZM84.3753 93.75H81.2503V90.625H84.3753V93.75ZM90.6253 93.75H87.5003V89.0625C87.5003 88.6481 87.3356 88.2507 87.0426 87.9577C86.7496 87.6646 86.3522 87.5 85.9378 87.5H79.6878C79.2734 87.5 78.8759 87.6646 78.5829 87.9577C78.2899 88.2507 78.1253 88.6481 78.1253 89.0625V93.75H75.0003V84.375H90.6253V93.75Z" fill="#FF5E28"/>
<path d="M9.375 68.75H12.5V71.875H9.375V68.75Z" fill="#FF5E28"/>
<path d="M9.375 62.5H12.5V65.625H9.375V62.5Z" fill="#FF5E28"/>
<path d="M9.375 56.25H12.5V59.375H9.375V56.25Z" fill="#FF5E28"/>
<path d="M87.5 68.75H90.625V71.875H87.5V68.75Z" fill="#FF5E28"/>
<path d="M87.5 62.5H90.625V65.625H87.5V62.5Z" fill="#FF5E28"/>
<path d="M87.5 56.25H90.625V59.375H87.5V56.25Z" fill="#FF5E28"/>
<path d="M65.625 50H68.75V53.125H65.625V50Z" fill="#FF5E28"/>
<path d="M71.875 50H75V53.125H71.875V50Z" fill="#FF5E28"/>
<path d="M78.125 50H81.25V53.125H78.125V50Z" fill="#FF5E28"/>
<path d="M31.25 50H34.375V53.125H31.25V50Z" fill="#FF5E28"/>
<path d="M25 50H28.125V53.125H25V50Z" fill="#FF5E28"/>
<path d="M18.75 50H21.875V53.125H18.75V50Z" fill="#FF5E28"/>
</svg>
