<svg width="80" height="80" viewBox="0 0 80 80" fill="none" xmlns="http://www.w3.org/2000/svg">
<path d="M79.5123 32.1534L72.8457 25.4867C72.5324 25.1735 72.109 25 71.6657 25H69.9992V23.3333C69.9992 22.89 69.8225 22.4666 69.5125 22.1533L56.1793 8.82021C53.5061 6.14712 49.0261 1.66718 39.9995 1.66718C30.9796 1.66718 26.843 5.80384 23.8197 8.82037C23.343 9.29708 23.1997 10.0136 23.4597 10.6371C23.7164 11.2603 24.3264 11.6671 24.9997 11.6671C38.4428 11.6671 39.9995 17.3737 39.9995 21.6669C39.9995 25.2336 37.9796 27.9501 36.6896 29.3336L47.5794 40.2234C50.5261 38.2302 54.7126 35.8768 56.666 36.0502V38.3335C56.666 38.7767 56.8428 39.2002 57.1528 39.5134L65.4859 47.8466C65.7992 48.1566 66.2227 48.3333 66.6659 48.3333H66.7226C67.1859 48.3201 67.6194 48.1133 67.9194 47.7666L79.5859 34.4335C80.1658 33.7701 80.1323 32.7768 79.5123 32.1534Z" fill="#FF5E28"/>
<path d="M2.51998 63.4564C0.896716 65.0797 7.62939e-06 67.2397 7.62939e-06 69.7329C7.62939e-06 74.4761 3.85668 78.3328 8.59991 78.3328C11.0166 78.3328 13.3366 77.3061 14.9631 75.5196L45.0562 42.4167L34.3096 31.6668L2.51998 63.4564Z" fill="#FF5E28"/>
</svg>
