<svg width="444" height="259" viewBox="0 0 444 259" fill="none" xmlns="http://www.w3.org/2000/svg">
<path d="M26.2397 88.5082V83.402H17.6276C15.5488 83.402 13.767 81.6999 13.767 79.7141C13.767 77.7284 15.5488 76.0263 17.6276 76.0263H26.2397V71.4874H17.6276C15.5488 71.4874 13.767 69.7853 13.767 67.7996C13.767 65.8138 15.5488 64.1117 17.6276 64.1117H26.2397V43.9704C26.2397 37.7295 31.2882 32.9069 37.8215 32.9069H51.7791C54.4518 17.3045 59.2033 3.12048 71.0821 3.12048H166.706C172.349 3.12048 177.397 4.53888 181.852 7.092C184.822 3.40416 188.088 0 190.464 0C195.215 0 194.622 8.51041 194.622 15.035C194.622 17.3045 194.622 19.8576 194.622 22.4107L213.034 72.3384C215.706 71.4874 219.27 69.7853 222.834 68.3669C234.415 62.977 248.67 56.4524 260.549 60.4239C265.894 62.126 269.755 65.8138 273.022 71.4874C275.991 73.4732 278.367 76.5937 278.961 79.9978L353.203 156.591L357.064 151.485L356.767 150.918C355.579 148.648 356.47 146.095 358.846 144.961C361.222 143.826 363.894 144.677 365.082 146.946L369.834 155.74C370.131 155.74 370.131 155.74 370.428 155.74C372.803 156.024 374.882 157.442 375.773 159.712L412.597 239.142L425.07 245.383C427.743 246.518 429.228 249.639 428.337 252.475C427.446 255.312 424.773 257.582 421.506 257.582H344.591C331.525 257.582 319.052 251.624 313.706 242.547C309.549 235.455 309.846 227.511 314.3 220.136C314.597 219.568 314.894 219.001 315.191 218.717L302.718 187.796V209.923C302.718 213.611 299.749 216.448 295.888 216.448H289.949C286.682 240.277 265.3 258.716 239.167 258.716C218.676 258.716 200.858 247.085 192.84 230.348H134.634C126.615 247.085 108.797 258.716 88.3064 258.716C65.1427 258.716 45.5427 243.965 39.3063 223.824H28.3185L26.2397 210.774H20.0033C17.9245 210.774 16.1428 209.072 16.1428 207.087C16.1428 205.101 17.9245 203.399 20.0033 203.399H25.0518L24.4579 200.278H17.3306C15.2518 200.278 13.47 198.576 13.47 196.59C13.47 194.605 15.2518 192.903 17.3306 192.903H23.27L6.34274 88.2245H26.2397V88.5082ZM35.1488 47.0909C35.1488 45.1051 34.8518 43.1194 34.8518 41.9847C34.8518 40.8499 34.5549 39.9989 34.5549 39.9989C34.5549 39.9989 34.5548 40.5663 34.2579 41.9847C34.2579 43.1194 33.9609 45.1051 33.9609 47.0909C33.664 51.3461 33.3669 57.0197 33.3669 62.6933C33.3669 68.3669 33.664 74.0405 33.9609 78.2957C33.9609 80.2815 34.2579 82.2673 34.2579 83.402C34.2579 84.5367 34.5549 85.3877 34.5549 85.3877C34.5549 85.3877 34.5548 84.8204 34.8518 83.402C34.8518 82.2673 35.1488 80.2815 35.1488 78.2957C35.4458 74.0405 35.7427 68.3669 35.7427 62.6933C35.7427 57.0197 35.4458 51.3461 35.1488 47.0909ZM188.979 203.399C188.979 202.831 189.276 202.264 189.276 201.697C188.088 201.697 186.9 201.697 185.712 201.697C180.367 201.697 174.428 201.697 168.488 201.697C162.549 201.697 156.906 201.697 151.264 201.697C146.809 201.697 142.949 201.98 139.088 201.98C139.088 202.548 139.385 202.831 139.385 203.399C142.949 203.399 147.106 203.682 151.264 203.682C156.609 203.682 162.549 203.682 168.488 203.682C174.428 203.682 180.07 203.682 185.712 203.682C186.603 203.399 187.791 203.399 188.979 203.399ZM239.464 195.456C234.415 195.456 230.258 197.725 227.288 201.129C229.961 198.576 233.822 197.158 237.682 197.158C245.997 197.158 252.828 203.682 252.828 211.625C252.828 215.597 251.343 219.001 248.67 221.554C252.234 219.001 254.609 214.746 254.609 209.923C254.906 201.98 248.076 195.456 239.464 195.456ZM296.185 209.923V169.924L287.573 148.365L274.209 140.138V143.826C274.209 149.216 269.458 153.755 263.815 153.755C258.173 153.755 253.422 149.216 253.422 143.826V135.883C249.561 133.046 246.888 128.791 246.888 123.685V123.401L224.318 109.501L244.512 126.238L217.191 114.039L218.973 133.33H240.652L234.118 137.018H219.27L220.161 145.812H242.434L235.9 149.499H220.755L221.349 156.024H286.682C287.87 156.024 289.058 156.875 289.058 158.294C289.058 159.428 288.167 160.563 286.682 160.563H221.646L221.943 162.549H227.585C231.446 161.698 235.603 161.13 239.761 161.13C243.919 161.13 248.076 161.698 251.937 162.549H286.682C287.87 162.549 289.058 163.4 289.058 164.818C289.058 165.953 288.167 167.088 286.682 167.088H263.815C267.973 169.357 271.834 171.91 275.397 175.031V173.329H281.337V179.002H279.258C286.682 187.513 290.84 198.292 291.137 209.923H296.185ZM344.591 251.057C361.222 251.057 421.506 251.057 421.506 251.057L406.955 243.681C406.955 243.681 363.003 243.681 346.373 243.681C329.743 243.681 324.991 235.738 324.991 235.738C324.991 235.738 330.04 240.844 345.779 240.844C358.846 240.844 391.512 236.589 402.797 235.171L375.179 174.747L330.04 220.136L372.209 168.506L369.24 162.265C369.24 162.265 329.743 208.221 320.24 223.54C311.034 238.859 328.258 251.057 344.591 251.057ZM160.47 7.37568C157.5 7.37568 154.234 7.37568 151.264 7.37568C145.325 7.37568 139.088 7.37568 133.446 7.65936C121.864 7.94305 111.173 7.94305 101.67 8.22673C92.464 8.51041 84.7427 8.79409 79.3973 9.07777C74.0518 9.36145 70.7852 9.64513 70.7852 9.64513C70.7852 9.64513 73.7549 9.92881 79.3973 10.2125C84.7427 10.4962 92.464 10.7798 101.67 11.0635C110.876 11.3472 121.864 11.6309 133.446 11.6309C139.385 11.6309 145.325 11.9146 151.264 11.9146C154.234 11.9146 157.5 11.9146 160.47 11.9146C163.44 11.9146 166.706 11.9146 169.379 12.1982C172.052 12.4819 174.428 13.333 176.506 14.4677C177.1 13.6166 177.991 12.4819 178.882 10.7798C176.209 9.36145 172.943 8.22673 169.973 7.65936C166.706 7.37568 163.737 7.37568 160.47 7.37568ZM272.131 82.2673C272.131 78.2957 268.864 75.1752 264.706 75.1752C262.628 75.1752 260.549 76.0263 259.361 77.4447C259.658 77.161 259.658 77.161 259.955 76.8773C261.44 76.0263 262.628 76.0263 263.519 76.0263C264.409 76.0263 264.706 76.31 264.706 76.31C264.706 76.31 264.112 76.5937 263.519 76.8773C262.925 77.161 262.034 78.0121 261.44 78.5794C260.846 79.4305 260.549 80.5652 260.846 81.4162V81.6999C260.846 81.9836 260.846 82.2673 260.846 82.2673C260.846 82.2673 260.846 82.5509 261.143 82.8346C261.44 83.402 261.737 83.6857 262.034 83.9693C262.331 84.253 262.925 84.5367 263.222 84.8204C263.815 85.104 264.112 85.104 264.706 85.104C265.597 85.104 266.785 84.8204 267.676 84.5367C268.567 83.9693 269.161 83.402 269.458 82.8346C269.755 82.2673 270.052 81.6999 270.052 81.6999C270.052 81.6999 270.349 81.9836 270.349 82.8346C270.349 83.6857 270.349 84.8204 269.458 86.2388C269.458 86.5225 269.161 86.5225 268.864 86.8061C270.943 86.2388 272.131 84.253 272.131 82.2673ZM191.949 29.5027C191.355 29.7864 190.761 30.0701 190.167 30.0701C189.276 30.0701 188.088 29.5027 187.197 28.6517C188.088 30.9211 188.979 33.1906 189.87 35.1763C193.731 45.6725 197.591 55.3176 201.155 63.5444C204.422 71.7711 207.391 78.5794 209.47 83.402C211.549 88.2245 212.737 91.0613 212.737 91.0613C212.737 91.0613 211.846 88.2245 210.361 83.1183C208.876 78.2957 206.5 71.2037 203.828 62.6933C201.155 54.1829 197.591 44.5378 194.028 34.0416C193.137 32.6232 192.543 30.9211 191.949 29.5027ZM68.4094 25.8149L63.064 99.0044H63.9548L71.3791 30.6375L70.4882 99.0044H93.9488V19.0066H78.5064C73.4579 19.0066 69.0033 20.7087 68.4094 25.8149ZM99.2943 109.217C91.87 109.217 85.3367 109.501 79.3973 109.501C73.4579 109.501 68.7064 109.784 65.4397 109.784C62.173 109.784 60.0943 110.068 60.0943 110.068C60.0943 110.068 62.173 110.068 65.4397 110.352C68.7064 110.352 73.7549 110.635 79.3973 110.635C85.3367 110.635 91.87 110.919 99.2943 110.919C106.719 110.919 114.44 110.919 122.161 111.203C129.882 111.203 137.603 111.203 145.028 110.919C152.452 110.919 158.985 110.635 164.925 110.635C170.864 110.635 175.615 110.352 178.882 110.352C182.149 110.352 184.228 110.068 184.228 110.068C184.228 110.068 182.149 110.068 178.882 109.784C175.615 109.784 170.567 109.501 164.925 109.501C158.985 109.501 152.452 109.217 145.028 109.217C137.603 109.217 129.882 109.217 122.161 108.933C114.44 108.933 106.719 108.933 99.2943 109.217ZM101.967 169.073C102.858 169.357 103.749 169.641 104.64 170.208C106.422 170.775 108.203 171.91 109.985 172.761C111.767 173.896 113.549 174.747 115.331 176.165C117.112 177.3 118.597 178.719 120.379 180.137C121.864 181.839 123.349 183.257 124.537 184.959C126.022 186.662 126.912 188.364 128.1 190.066C128.991 191.768 130.179 193.47 130.773 195.172C131.07 196.023 131.367 196.874 131.961 197.725C132.258 198.576 132.555 199.427 132.852 199.995C133.446 201.413 133.743 202.831 134.04 204.25C134.04 204.817 134.337 205.384 134.337 205.952C134.337 206.519 134.337 207.087 134.634 207.654C134.931 209.64 134.931 210.491 134.931 210.491C134.931 210.491 134.931 209.356 134.931 207.37C134.931 206.803 134.931 206.235 134.931 205.668C134.931 205.101 134.931 204.533 134.634 203.682C134.634 202.264 134.337 200.846 134.04 199.143C133.743 198.292 133.743 197.441 133.446 196.59C133.149 195.739 132.852 194.888 132.555 194.037C131.961 192.335 131.07 190.349 130.179 188.647C128.991 186.945 128.1 184.959 126.615 183.257C125.428 181.555 123.646 179.853 122.161 178.151C120.379 176.733 118.894 175.031 116.815 173.896C115.034 172.478 112.955 171.626 111.173 170.492C109.094 169.641 107.312 168.79 105.531 168.222C104.64 167.939 103.749 167.655 102.858 167.371C101.967 167.088 101.076 167.088 100.185 166.804C98.4034 166.237 96.9185 166.237 95.4337 166.237C94.8397 166.237 93.9488 166.237 93.3549 165.953C92.7609 165.953 92.167 165.953 91.573 165.953C89.4943 165.953 88.3064 165.953 88.3064 165.953C88.3064 165.953 89.4943 165.953 91.2761 166.237C91.87 166.237 92.167 166.237 92.7609 166.52C93.3549 166.52 93.9488 166.804 94.5427 166.804C96.0276 167.088 97.5124 167.371 98.9973 167.939C100.482 168.79 101.076 169.073 101.967 169.073ZM194.028 187.796V169.924L193.731 150.067L193.434 130.209L192.84 110.352L192.246 130.209L191.949 150.067L191.652 169.924V188.931H171.161H150.076L142.355 170.775L134.337 152.053L126.318 133.33L118.003 114.89L125.428 133.897L132.852 152.62L140.573 171.343L148.294 190.066L148.591 190.633H149.185H170.864H191.949C192.84 190.066 193.434 188.931 194.028 187.796ZM272.131 123.685C272.131 118.862 267.973 114.89 262.925 114.89C260.549 114.89 258.767 115.742 256.985 116.876C258.47 116.025 260.252 115.742 261.143 115.742C262.331 115.742 262.628 116.025 262.925 116.025C262.925 116.025 262.925 116.025 262.628 116.025C262.331 116.025 262.034 116.309 261.44 116.593C260.549 116.876 259.361 117.727 258.47 118.862C257.579 119.997 256.985 121.415 256.985 123.117C256.985 123.401 256.985 123.685 256.985 123.685C256.985 123.968 256.985 124.252 256.985 124.252C256.985 124.536 257.282 124.819 257.282 125.387C257.579 125.954 258.173 126.805 258.47 127.372C259.064 127.94 259.658 128.223 260.549 128.507C261.44 128.791 262.034 129.074 262.925 129.074C263.518 129.074 264.409 129.074 265.3 128.791C265.894 128.507 266.785 128.223 267.379 127.656C268.567 126.805 269.458 125.67 269.755 124.819C270.052 124.536 270.052 123.968 270.349 123.685C270.349 123.401 270.349 123.401 270.349 123.401C270.349 123.401 270.349 123.401 270.349 123.685C270.349 123.968 270.646 124.252 270.646 124.819C270.646 125.67 270.349 127.372 269.458 128.791C271.24 127.94 272.131 125.954 272.131 123.685ZM262.925 95.6002V108.366C264.409 108.366 265.894 108.65 267.082 108.933V95.6002C266.191 95.6002 265.3 95.8839 264.706 95.8839C264.112 95.8839 263.518 95.8839 262.925 95.6002ZM308.955 140.138L331.525 196.874C336.276 190.633 341.622 184.392 346.373 178.719L308.955 140.138ZM274.209 104.111V112.905C274.803 113.472 275.694 114.323 276.288 115.174L297.967 128.507L274.209 104.111ZM267.379 138.436C265.894 138.72 264.706 139.003 263.222 139.003V147.23C263.518 147.23 263.815 147.23 264.112 147.23C265.894 147.23 267.676 145.812 267.676 143.826V138.436H267.379ZM113.846 99.0044H115.925L120.379 21.5597L124.834 99.0044H173.834L177.1 87.0898C177.694 85.3877 179.476 84.253 181.258 84.8204C183.04 85.3877 184.228 87.0898 183.634 88.7919L180.664 99.0044H184.822V89.6429C184.822 87.3735 186.9 85.3877 189.276 85.3877H191.949L180.961 30.6375C179.773 24.1128 173.24 18.1555 166.112 18.1555L113.846 19.0066V99.0044ZM205.312 164.818C205.312 159.996 205.312 155.173 205.312 150.067C205.312 144.961 205.312 140.138 205.312 135.315C205.312 130.493 205.015 126.238 205.015 122.55C205.015 118.862 204.719 115.742 204.719 113.472C204.719 111.203 204.422 110.068 204.422 110.068C204.422 110.068 204.422 111.203 204.125 113.472C204.125 115.742 203.828 118.862 203.828 122.55C203.828 126.238 203.531 130.777 203.531 135.315C203.531 140.138 203.531 144.961 203.531 150.067C203.531 155.173 203.531 159.996 203.531 164.818C203.531 168.506 203.828 172.194 203.828 175.314C204.422 174.747 204.719 174.463 205.312 173.896C205.312 171.059 205.312 167.939 205.312 164.818ZM88.6033 161.13C102.561 161.13 115.034 166.52 124.24 175.031L98.4034 114.323H53.8579V115.458L96.0276 118.295L53.2639 120.848L52.373 128.507H64.8458L58.3124 137.018H51.4821L50.5912 144.393H64.8458L58.3124 152.904H49.7003L47.9185 168.79C47.9185 168.79 51.4821 170.775 55.6397 172.761C64.2518 165.669 75.8336 161.13 88.6033 161.13ZM253.422 100.99V90.2103C251.64 87.9408 250.452 85.3877 250.452 82.2673C250.452 79.9978 251.046 77.7284 252.234 75.7426C251.64 75.4589 251.046 75.1752 250.452 75.1752C241.84 72.3384 230.258 76.5937 220.458 80.8489L253.422 100.99ZM277.476 88.2245C276.585 89.9266 275.694 91.345 274.209 92.4797L352.015 171.91C352.906 170.775 354.094 169.641 354.985 168.506L277.476 88.2245ZM320.834 210.774L311.034 185.811L314.894 184.392L323.506 207.087C324.397 205.952 325.585 204.533 326.476 203.115L318.161 181.839L309.549 184.959L320.24 211.625C320.537 211.342 320.537 211.058 320.834 210.774ZM285.791 207.654C285.791 207.087 285.791 206.519 285.791 205.952C285.791 205.384 285.791 204.817 285.494 203.966C285.494 202.548 285.197 201.129 284.9 199.427C284.603 198.576 284.603 197.725 284.306 196.874C284.009 196.023 283.712 195.172 283.415 194.321C282.822 192.619 281.931 190.633 281.04 188.931C279.852 187.229 278.961 185.243 277.476 183.541C276.288 181.839 274.506 180.137 273.022 178.435C271.24 177.016 269.755 175.314 267.676 174.18C265.894 172.761 263.815 171.91 262.034 170.775C259.955 169.924 258.173 169.073 256.391 168.506C255.5 168.222 254.609 167.939 253.718 167.655C252.828 167.371 251.937 167.371 251.046 167.088C249.264 166.52 247.779 166.52 246.294 166.52C245.7 166.52 244.809 166.52 244.215 166.237C243.622 166.237 243.028 166.237 242.434 166.237C240.355 166.237 239.167 166.237 239.167 166.237C239.167 166.237 240.355 166.237 242.137 166.52C242.731 166.52 243.028 166.52 243.622 166.804C244.215 166.804 244.809 167.088 245.403 167.088C246.888 167.371 248.373 167.655 249.858 168.222C250.749 168.506 251.64 168.79 252.234 169.073C253.125 169.357 254.015 169.641 254.906 170.208C256.688 170.775 258.47 171.91 260.252 172.761C262.034 173.896 263.815 174.747 265.597 176.165C267.379 177.3 268.864 178.719 270.646 180.137C272.131 181.839 273.615 183.257 274.803 184.959C276.288 186.662 277.179 188.364 278.367 190.066C279.258 191.768 280.446 193.47 281.04 195.172C281.337 196.023 281.634 196.874 282.228 197.725C282.525 198.576 282.822 199.427 283.118 199.995C283.712 201.413 284.009 202.831 284.306 204.25C284.306 204.817 284.603 205.384 284.603 205.952C284.603 206.519 284.603 207.087 284.9 207.654C285.197 209.64 285.197 210.491 285.197 210.491C285.197 210.491 285.791 209.64 285.791 207.654ZM239.464 200.846C236.494 200.846 234.119 201.98 232.337 203.966C232.634 203.682 232.931 203.399 233.228 203.399C235.009 202.264 236.791 201.98 237.979 201.98C239.167 201.98 239.761 202.264 239.761 202.264H239.464C239.167 202.264 238.87 202.548 238.276 202.831C237.682 203.115 236.791 203.682 235.9 204.533C237.088 203.966 238.276 203.399 239.761 203.399C243.622 203.399 246.888 206.519 246.888 210.207C246.888 211.625 246.591 212.76 245.7 213.895C246.591 213.044 246.888 212.476 247.482 211.625C247.779 211.058 247.779 210.774 248.076 210.491C248.076 210.207 248.076 210.207 248.076 210.207V210.491C248.076 210.774 248.373 211.058 248.373 211.625C248.373 212.76 248.076 214.462 246.888 216.164C246.591 216.448 246.591 216.732 246.294 216.732C248.373 215.03 249.561 212.76 249.561 209.923C249.264 205.101 244.809 200.846 239.464 200.846ZM178.585 222.689C176.803 222.689 174.131 222.405 171.161 222.405C168.191 222.405 164.628 222.122 160.767 222.122C156.906 222.122 152.749 222.122 148.888 222.122C145.325 222.122 141.761 222.122 138.197 222.122C137.9 222.689 137.9 223.54 137.603 224.107C141.167 224.107 145.028 224.107 148.888 224.107C153.046 224.107 157.203 224.107 160.767 224.107C164.628 224.107 168.191 223.824 171.161 223.824C174.131 223.824 176.803 223.54 178.585 223.54C180.367 223.54 181.258 223.256 181.258 223.256C181.258 223.256 180.367 222.973 178.585 222.689ZM98.1064 210.207C98.1064 205.101 93.6518 200.846 88.3064 200.846C85.3367 200.846 82.9609 201.98 81.1791 203.966C81.4761 203.682 81.773 203.399 82.07 203.399C83.8518 202.264 85.6336 201.98 86.8215 201.98C88.0094 201.98 88.6033 202.264 88.6033 202.264H88.3064C88.0094 202.264 87.7124 202.548 87.1185 202.831C86.5246 203.115 85.6336 203.682 84.7427 204.533C85.9306 203.966 87.1185 203.399 88.6033 203.399C92.464 203.399 95.7306 206.519 95.7306 210.207C95.7306 211.625 95.4337 212.76 94.5427 213.895C95.4337 213.044 95.7306 212.476 96.3246 211.625C96.6215 211.058 96.6215 210.774 96.9185 210.491C96.9185 210.207 96.9185 210.207 96.9185 210.207V210.491C96.9185 210.774 97.2155 211.058 97.2155 211.625C97.2155 212.76 96.9185 214.462 95.7306 216.164C95.4337 216.448 95.4336 216.732 95.1367 216.732C96.9185 215.313 98.1064 212.76 98.1064 210.207ZM86.8215 197.158C95.1367 197.158 101.967 203.682 101.967 211.625C101.967 215.597 100.482 219.001 97.8094 221.554C101.373 219.001 103.749 214.746 103.749 209.923C103.749 201.98 96.9185 195.172 88.3064 195.172C83.2579 195.172 79.1003 197.441 76.1306 200.846C79.1003 198.576 82.6639 197.158 86.8215 197.158ZM37.5246 215.881C36.0397 215.881 35.1488 215.881 35.1488 215.881C35.1488 215.881 36.0397 216.164 37.5246 215.881C37.8215 216.164 37.8215 215.881 37.5246 215.881ZM49.9973 177.867C46.7306 175.882 43.167 173.896 39.9003 172.194L42.2761 154.322L44.3549 135.883C45.2458 129.642 45.5427 123.685 46.1367 117.444C46.7306 111.203 47.3246 105.245 47.6215 99.0044C46.7306 105.245 45.5427 111.203 44.6518 117.444C43.7609 123.685 42.87 129.642 41.9791 135.883L39.6033 154.322L37.5246 172.761V173.329L38.1185 173.612C41.6821 175.598 45.2458 177.3 48.8094 179.286C49.4033 178.719 49.7003 178.151 49.9973 177.867ZM40.7912 47.0909C40.7912 45.1051 40.4943 43.1194 40.4943 41.9847C40.4943 40.8499 40.1973 39.9989 40.1973 39.9989C40.1973 39.9989 40.1973 40.5663 39.9003 41.9847C39.9003 43.1194 39.6033 45.1051 39.6033 47.0909C39.3064 51.3461 39.0094 57.0197 39.0094 62.6933C39.0094 68.3669 39.3064 74.0405 39.6033 78.2957C39.6033 80.2815 39.9003 82.2673 39.9003 83.402C39.9003 84.5367 40.1973 85.3877 40.1973 85.3877C40.1973 85.3877 40.1973 84.8204 40.4943 83.402C40.4943 82.2673 40.7912 80.2815 40.7912 78.2957C41.0882 74.0405 41.3852 68.3669 41.3852 62.6933C41.3852 57.0197 41.0882 51.3461 40.7912 47.0909ZM46.4337 47.0909C46.4337 45.1051 46.1367 43.1194 46.1367 41.9847C46.1367 40.8499 45.8397 39.9989 45.8397 39.9989C45.8397 39.9989 45.8397 40.5663 45.5427 41.9847C45.5427 43.1194 45.2458 45.1051 45.2458 47.0909C44.9488 51.3461 44.6518 57.0197 44.6518 62.6933C44.6518 68.3669 44.9488 74.0405 45.2458 78.2957C45.2458 80.2815 45.5427 82.2673 45.5427 83.402C45.5427 84.5367 45.8397 85.3877 45.8397 85.3877C45.8397 85.3877 45.8397 84.8204 46.1367 83.402C46.1367 82.2673 46.4337 80.2815 46.4337 78.2957C46.7306 74.0405 47.0276 68.3669 47.0276 62.6933C46.7306 57.0197 46.7306 51.3461 46.4337 47.0909ZM191.949 6.52464C191.652 4.53888 191.355 3.12048 191.355 3.12048C191.355 3.12048 191.058 4.53888 190.761 6.52464C190.464 8.51041 190.167 11.3472 190.167 13.9003C190.167 16.7371 190.464 19.2903 190.761 21.276C191.058 23.2618 191.355 24.6802 191.355 24.6802C191.355 24.6802 191.652 23.2618 191.949 21.276C192.246 19.2903 192.543 16.4535 192.543 13.9003C192.543 11.3472 192.246 8.51041 191.949 6.52464ZM258.767 64.1117C248.67 60.7076 235.306 66.9485 224.615 71.7711C220.755 73.4732 217.191 75.1752 214.519 76.0263L214.815 77.4447L216.003 78.2957C227.288 73.1895 240.949 67.2322 252.234 71.2037C253.422 71.4874 254.312 72.0548 255.203 72.6221C257.876 70.3527 261.143 68.9343 264.706 68.9343C265.003 68.9343 265.3 68.9343 265.597 68.9343C263.518 66.6648 261.44 64.9628 258.767 64.1117ZM356.47 159.712L359.737 162.832C360.628 161.698 361.519 160.847 362.112 159.996L359.737 155.457L356.47 159.712ZM239.464 242.547C254.609 242.547 267.676 232.901 271.834 219.852C266.785 230.632 255.5 238.008 242.434 238.008C238.87 238.008 235.603 237.44 232.634 236.589C235.603 237.157 238.573 237.44 241.543 237.157C245.403 236.873 249.264 235.738 252.234 234.036C255.5 232.334 257.876 230.348 259.955 228.079C262.034 225.809 263.518 223.54 264.409 221.271C265.003 220.136 265.3 219.001 265.597 218.15C265.894 217.299 266.191 216.164 266.191 215.313C266.488 213.611 266.488 212.193 266.488 211.342C266.488 210.491 266.488 209.923 266.488 209.923C266.488 209.923 266.488 210.491 266.488 211.342C266.488 212.193 266.191 213.611 265.894 215.313C265.597 216.164 265.3 217.015 265.003 217.866C264.706 218.717 264.409 219.852 263.519 220.703C262.331 222.689 260.846 224.958 258.767 226.944C256.688 228.93 254.312 230.916 251.343 232.334C248.373 233.752 244.809 234.604 241.246 234.887C237.682 235.171 233.822 234.604 230.258 233.469C226.694 232.334 223.428 230.065 220.755 227.511C218.082 224.958 216.003 221.838 214.519 218.434C213.925 216.732 213.331 215.03 213.034 213.327C212.737 212.476 212.737 211.625 212.737 210.491C212.737 209.64 212.737 208.789 212.737 207.938C213.034 204.533 213.925 201.129 215.409 198.292C216.894 195.456 218.973 192.903 221.052 191.2C223.131 189.215 225.506 187.796 227.585 186.662C228.773 186.094 229.664 185.811 230.555 185.243C231.446 184.959 232.337 184.676 233.228 184.392C235.009 184.108 236.197 183.825 237.385 183.825C238.276 183.825 238.87 183.825 238.87 183.825C238.87 183.825 238.276 183.825 237.385 183.825C236.494 183.825 235.009 183.825 233.228 184.108C232.337 184.392 231.446 184.392 230.258 184.676C229.367 184.959 228.179 185.243 226.991 185.811C224.615 186.662 222.24 188.08 219.864 190.066C217.488 192.051 215.409 194.605 213.628 197.441C211.846 200.562 210.658 203.966 210.361 207.654C210.361 208.505 210.064 209.64 210.361 210.491C210.361 211.342 210.361 212.193 210.658 213.327C210.658 214.179 210.955 215.313 211.252 216.164C210.361 213.327 209.767 210.207 209.767 206.803C209.767 194.321 217.488 183.541 228.773 178.719C214.815 182.69 205.015 195.172 205.015 209.64C205.609 228.079 220.755 242.547 239.464 242.547ZM141.761 227.511C146.215 227.511 151.264 227.795 156.609 227.795C161.955 227.795 167.894 227.795 173.834 227.795C179.773 227.795 185.415 227.795 191.058 227.795C191.355 227.795 191.652 227.795 191.949 227.795C191.652 227.228 191.355 226.377 191.058 225.809C185.712 225.809 179.773 225.809 173.834 225.809C167.894 225.809 162.252 225.809 156.609 225.809C151.264 225.809 145.919 226.093 141.761 226.093C139.979 226.093 138.197 226.093 136.712 226.377C136.712 226.66 136.415 226.944 136.415 227.228C137.9 227.511 139.979 227.511 141.761 227.511ZM88.6033 242.547C103.749 242.547 116.815 232.901 120.973 219.852C115.925 230.632 104.64 238.008 91.573 238.008C88.0094 238.008 84.7427 237.44 81.773 236.589C84.7427 237.157 87.7124 237.44 90.6821 237.157C94.5427 236.873 98.4034 235.738 101.373 234.036C104.64 232.334 107.015 230.348 109.094 228.079C111.173 225.809 112.658 223.54 113.549 221.271C114.143 220.136 114.44 219.001 114.737 218.15C115.034 217.299 115.331 216.164 115.331 215.313C115.628 213.611 115.628 212.193 115.628 211.342C115.628 210.491 115.628 209.923 115.628 209.923C115.628 209.923 115.628 210.491 115.628 211.342C115.628 212.193 115.331 213.611 115.034 215.313C114.737 216.164 114.44 217.015 114.143 217.866C113.846 218.717 113.549 219.852 112.658 220.703C111.47 222.689 109.985 224.958 107.906 226.944C105.828 228.93 103.452 230.916 100.482 232.334C97.5124 233.752 93.9488 234.604 90.3852 234.887C86.8215 235.171 82.9609 234.604 79.3973 233.469C75.8336 232.334 72.567 230.065 69.8942 227.511C67.2215 224.958 65.1427 221.838 63.6579 218.434C63.0639 216.732 62.47 215.03 62.173 213.327C61.8761 212.476 61.8761 211.625 61.8761 210.491C61.8761 209.64 61.8761 208.789 61.8761 207.938C62.173 204.533 63.064 201.129 64.5488 198.292C66.0337 195.456 68.1124 192.903 70.1912 191.2C72.27 189.215 74.6458 187.796 76.7245 186.662C77.9124 186.094 78.8033 185.811 79.6942 185.243C80.5852 184.959 81.4761 184.676 82.367 184.392C84.1488 184.108 85.3367 183.825 86.5246 183.825C87.4155 183.825 88.0094 183.825 88.0094 183.825C88.0094 183.825 87.4155 183.825 86.5246 183.825C85.6337 183.825 84.1488 183.825 82.367 184.108C81.4761 184.392 80.5852 184.392 79.3973 184.676C78.5064 184.959 77.3185 185.243 76.1306 185.811C73.7549 186.662 71.3791 188.08 69.0034 190.066C66.6276 192.051 64.5488 194.605 62.767 197.441C60.9852 200.562 59.7973 203.966 59.5003 207.654C59.5003 208.505 59.2033 209.64 59.5003 210.491C59.5003 211.342 59.5003 212.193 59.7973 213.327C59.7973 214.179 60.0942 215.313 60.3912 216.164C59.5003 213.327 58.9064 210.207 58.9064 206.803C58.9064 194.321 66.6276 183.541 77.9124 178.719C63.9549 182.69 54.1548 195.172 54.1548 209.64C54.4518 228.079 69.5973 242.547 88.6033 242.547ZM33.9609 220.987C35.1488 220.987 36.9306 220.987 38.4155 221.271C38.4155 220.987 38.4155 220.703 38.1185 220.419C36.3367 220.419 34.8518 220.703 33.6639 220.703C30.9912 220.703 29.5064 220.987 29.5064 220.987C29.5064 220.987 31.5852 220.987 33.9609 220.987ZM13.767 109.501C14.3609 114.039 15.2518 119.146 16.1428 124.819C17.0337 130.493 17.9246 136.45 19.1125 142.407C20.3003 148.365 21.1912 154.322 22.3791 159.996C23.27 165.669 24.4579 170.775 25.3488 175.314C26.2397 179.853 27.1306 183.541 27.7245 186.094C28.3185 188.647 28.6155 190.066 28.6155 190.066C28.6155 190.066 28.3185 188.647 28.0215 185.811C27.7246 183.257 27.1306 179.286 26.5367 175.031C25.9427 170.492 25.0518 165.386 24.1609 159.712C23.27 154.038 22.3791 148.081 21.1912 142.124C20.0034 136.166 19.1124 130.209 17.9245 124.536C17.0336 118.862 15.8458 113.756 14.9548 109.217C14.0639 104.678 13.173 100.99 12.5791 98.437C11.9851 95.8839 11.6882 94.4655 11.6882 94.4655C11.6882 94.4655 11.9852 95.8839 12.2821 98.7207C12.8761 101.274 13.173 104.962 13.767 109.501Z" fill="#25262A"/>
<path d="M286.088 173.329H292.027V179.002H286.088V173.329Z" fill="#25262A"/>
<path d="M155.421 55.3175C158.391 58.1543 161.361 60.9911 164.034 63.8279C166.706 66.6647 169.082 69.2178 171.458 71.2036C173.24 73.473 175.022 75.1751 176.209 76.5935C177.397 78.0119 177.991 78.5793 177.991 78.5793C177.991 78.5793 177.1 78.0119 175.912 76.8772C174.428 75.7425 172.646 74.0404 170.27 72.0546C167.894 70.0689 165.222 67.5157 162.549 64.9626C159.579 62.4095 156.609 59.5727 153.64 56.7359C150.67 53.8991 147.7 51.0623 145.028 48.2255C142.355 45.3887 139.979 42.8356 137.603 40.8498C135.525 38.5804 133.743 36.5946 132.555 35.4599C131.367 34.0415 130.773 33.4741 130.773 33.4741C130.773 33.4741 131.664 34.0415 132.852 35.1762C134.337 36.3109 136.118 38.013 138.494 39.9988C140.87 41.9845 143.543 44.5376 146.215 47.0908C149.185 49.6439 152.155 52.4807 155.421 55.3175Z" fill="#25262A"/>
<path d="M170.27 61.5584C171.458 62.9768 172.349 64.1115 173.24 64.9626C173.834 65.8136 174.428 66.381 174.428 66.381C174.428 66.381 173.834 66.0973 172.943 65.2463C172.052 64.6789 170.864 63.5442 169.379 62.4095C166.41 60.14 162.846 56.7359 159.282 53.3317C155.719 49.9275 152.452 46.5234 149.779 43.6866C148.591 42.2682 147.7 41.1335 146.81 40.2824C146.216 39.4314 145.622 38.864 145.622 38.864C145.622 38.864 146.216 39.1477 147.107 39.9987C147.997 40.5661 149.185 41.7008 150.67 42.8355C153.64 45.105 157.204 48.5091 160.767 51.9133C164.331 55.0338 167.894 58.7216 170.27 61.5584Z" fill="#25262A"/>
<path d="M143.839 78.863C147.403 82.2672 150.67 85.6713 153.342 88.5081C154.53 89.9265 155.421 91.0613 156.312 91.9123C156.906 92.7633 157.5 93.3307 157.5 93.3307C157.5 93.3307 156.906 93.047 156.015 92.196C155.124 91.6286 153.936 90.4939 152.452 89.3592C149.482 87.0897 145.918 83.6856 142.355 80.2814C138.791 76.8772 135.524 73.4731 132.852 70.6363C131.664 69.2179 130.773 68.0832 129.882 67.2321C129.288 66.3811 128.694 65.8137 128.694 65.8137C128.694 65.8137 129.288 66.0974 130.179 66.9484C131.07 67.5158 132.258 68.6505 133.742 69.7852C136.415 72.0547 140.276 75.4588 143.839 78.863Z" fill="#25262A"/>
<path d="M173.24 38.5805C174.724 40.2826 175.318 41.4174 175.318 41.4174C175.318 41.4174 174.13 40.5663 172.349 39.4316C170.567 38.2969 168.488 36.3111 166.409 34.3253C164.331 32.3396 162.549 30.3538 161.064 28.6517C159.579 26.9497 158.985 25.8149 158.985 25.8149C158.985 25.8149 160.173 26.666 161.955 27.8007C163.737 28.9354 165.815 30.9212 167.894 32.9069C169.973 34.8927 171.755 37.1621 173.24 38.5805Z" fill="#25262A"/>
<path d="M83.8515 75.1753C85.6334 76.8774 87.1182 78.5795 88.3061 80.2815C89.494 81.6999 90.0879 82.8347 90.0879 82.8347C90.0879 82.8347 88.9 82.2673 87.4152 81.1326C85.9303 79.9979 83.8516 78.5795 82.0697 76.8774C80.2879 75.1753 78.8031 73.4732 77.6152 71.7711C76.4273 70.3527 75.8334 69.218 75.8334 69.218C75.8334 69.218 77.0213 69.7854 78.5061 70.9201C80.2879 71.7711 82.0697 73.4732 83.8515 75.1753Z" fill="#25262A"/>
<path d="M88.3061 37.4458C89.494 38.8642 90.0879 39.999 90.0879 39.999C90.0879 39.999 88.9 39.4316 87.4152 38.2969C85.9303 37.1622 83.8516 35.7438 82.0697 34.0417C80.2879 32.3396 78.8031 30.6375 77.6152 28.9354C76.4273 27.517 75.8334 26.3823 75.8334 26.3823C75.8334 26.3823 77.0213 26.9497 78.5061 28.0844C79.9909 29.2191 82.0697 30.6375 83.8515 32.3396C85.6334 34.3254 87.4152 36.0274 88.3061 37.4458Z" fill="#25262A"/>
<path d="M86.2276 71.2037C87.1185 72.3385 87.7124 73.4732 87.7124 73.4732C87.7124 73.4732 86.8215 72.9058 85.3367 72.0548C84.1488 71.2037 82.367 70.069 80.8821 68.6506C79.3973 67.2322 78.2094 65.8138 77.3185 64.3954C76.4276 63.2607 75.8336 62.126 75.8336 62.126C75.8336 62.126 76.7245 62.6933 78.2094 63.5444C79.3973 64.3954 81.1791 65.5301 82.6639 66.9485C84.1488 68.3669 85.3366 70.069 86.2276 71.2037Z" fill="#25262A"/>
<path d="M338.948 222.405C339.839 221.554 341.027 220.136 342.809 218.718C346.076 215.597 350.233 211.626 354.688 207.938C359.142 204.25 363.894 200.562 367.457 197.725C369.239 196.307 370.724 195.456 371.912 194.605C373.1 193.754 373.694 193.47 373.694 193.47C373.694 193.47 373.1 194.037 372.209 194.888C371.318 195.739 370.13 197.158 368.348 198.576C365.082 201.697 360.924 205.668 356.47 209.356C352.015 213.044 347.264 216.732 343.7 219.569C341.918 220.987 340.433 221.838 339.245 222.689C338.057 223.54 337.464 223.824 337.464 223.824C337.464 223.824 338.057 223.256 338.948 222.405Z" fill="#25262A"/>
<path d="M355.876 234.036C359.736 233.185 365.082 232.334 370.427 231.767C375.773 231.199 381.118 230.632 384.979 230.348C387.058 230.348 388.543 230.348 389.73 230.065C390.918 230.065 391.512 230.065 391.512 230.065C391.512 230.065 390.918 230.348 389.73 230.632C388.543 230.916 387.058 231.199 384.979 231.767C381.118 232.618 375.773 233.469 370.427 234.036C365.082 234.604 359.736 235.171 355.876 235.455C353.797 235.455 352.312 235.455 351.124 235.738C349.936 235.738 349.342 235.738 349.342 235.738C349.342 235.738 349.936 235.455 351.124 235.171C352.312 234.887 353.797 234.32 355.876 234.036Z" fill="#25262A"/>
</svg>
